<?xml version="1.0" encoding="UTF-8"?>
<svg id="_Слой_2" data-name="Слой 2" xmlns="http://www.w3.org/2000/svg" viewBox="0 0 573.77 830.51">
  <defs>
    <style>
      .cls-1 {
        fill: #fff;
      }
    </style>
  </defs>
  <path class="cls-1" d="M281.98,350.87c-.13-1.07-1.12-4.15-1.52-5.31-1.18-3.42-3.65-9.08-5.37-12.25-1.38-2.55-7.64-6.34-10.19-8.51-.45-.38-.92-.81-1.22-1.32.55-1.41.87-4.75,1.75-5.69.24-.26.46-.61.87-.52.65.14,1.24,2.1,2.02.88-1.36-4.57-5.07-11.19-1.96-15.62,1.14-1.63,3.27-3.84,4.73-5.17.41-.37.48-1.55,1.55-.79.2,1.26-1.61,2.28-1.98,3.05-.13.26-.5,2.35-.52,2.73-.02.42.57,3.92.72,4.1.52.64,1.41-1.06,2.05-.8.42-.79,1.78-2.68,2.74-2.4,2.64,2.13,3.51,5.53,5.45,8.24,1.35.22.69-.46,1.1-1.42.74-1.73,1.39-3.52,2.52-5.04.86-1.15,2.41-2.9,3.57-3.62,1.39.06,2.86-.15,4.24.08,5.93.98,12.37,3.79,18.46,4.92,2.38.44,4.13.36,6.34.47s4.95,1.55,7.47,1c-1.39,2.35-3.79,1.57-5.94,1.79-1.42.15-4,.4-5.21.9-.66.27-1.18.91-1.77,1.1-5.38,1.8-17.56-3.93-23.98-4.14-.46-.01-2.26.34-2.66.53-1.21.57-2.63,4.39-2.52,5.72.08.86,2.52,5.97,3.05,5.97,1.19-.67,1.36-2.11,1.98-2.99.06-.09,1.35-1.42,1.45-1.5,4.6-3.62,9.58-1.3,14.3-.28,4.4.95,9.44,1.49,13.94,1.18.68-.05,1.27-.44,1.97-.37.11.59-.05.82-.34,1.27-.9,1.37-7.92,4.95-9.84,5.99-1.71.93-4.48,1.59-5.19,3.44-.34.88-.89,3.32-.81,4.19.06.66.54,1.29.64,1.91.43,2.7.65,5.56,1.52,8.19.36,1.08.67,1.11,1.7.63,1.9-.9,4.7-3.55,5.78-5.37,2.94-4.94,4.77-10.8,6.55-16.41.21-.65,3.05-3.52,3.61-4.37.65-1.01.15-1.39,1.45-2.51,2.16-1.87,7.39-3.25,10.22-3.45,1.25-.09,2.54.07,3.79,0,.35,1.49-.7.97-1.44,1.62-1,.88-1.5,4.51-1.99,5.93-.82,2.37-2.35,4.43-2.79,6.93-.08.47-.46.46.27.98,1.43-1.67,3.65-2.68,5.24-4.11s3.08-3.8,4.92-5.24c1.19-.32,3.5-2.76,4.53-2.47.64.18,1.79,2.55,2.41,3.29.45.55,1.29,1.05,1.79,1.52.81.77.99,2.05,2.51,1.62-.27,1.59.18,1.19.89,1.79,1.37,1.15,2.68,2.4,4.17,3.4,3.81,2.54,8.78,4.14,13.28,4.89-.15.71-.71.64-1.25.72-6.9,1.04-11.83.78-18.14-2.37-.58-.29-1.17-.78-1.65-1.22-.33.26-.49.45-.55.89-.35,2.4-.13,5.46-.38,7.89-.37,3.55-1.94,6.87-2.84,10.28.62.12.89-.32,1.27-.71,2.33-2.42,4.48-5.5,6.82-7.93,1.97-2.05,3.1-3.57,6.15-3.92,2.15-.25,6.45.13,8.54.76.38.11.86.61.97,1.01-2.32.27-4.31-.51-6.46.91-1.25.83-2.71,3-3.77,4.15-4.43,4.78-9.22,11.44-15.06,14.79-1.05.6-2.32.91-3.23,1.39-1.13.6-2.2.98-3.38,1.79-1.1.76-2.41.43-3.35,1.26,0,.46,2.78.97,3.33,1.27.33.18.26.56.5.7.76.46,1.81.78,2.46,1.43.16.16,2.06,2.73,2.14,2.9.91,1.75,1.89,5.56,2.51,7.56,1.19,3.79,2.04,7.6,2.98,11.41.39,1.58.72,3.18,1.21,4.73,2.56-.11,5.29.65,7.5-.88,4.68-3.24,8.26-15.28,10.63-20.67.36-.82,1.05-1.57,1.26-2.51-.66-.13-.88.32-1.23.74-1.55,1.85-4.34,6.72-6.66,7.36l-12.69,1.54-.99-.65c2.04-.82,4.5-1.47,6.47-2.34,5.11-2.27,8.24-10.78,12.59-14.39,1.16-.97,1.79-1.44,3.4-1.23.72.1,2.39.56,3.17.79.61.17,4.26,1.52,4.41,1.71.79.99-.2,3.96-.63,5.14-1.58,4.35-4.08,8.84-5.85,13.21-.23.56-1.45,3.75-1.26,3.95,1.49-.07,1.78-1.83,2.51-2.7,1.6-1.91,3.39-3.87,5.04-5.75,3.01-3.41,6.44-4.5,10.33-6.6.52-.17.99-.01,1.45.22.33.16,2.41,2.52,2.76,2.99,3.85,5.17,6.6,16.4,9.98,22.75.44.82,3.36,6.02,3.63,6.26.41.37,1.34.37,1.71.99-.61.36-2.64-.52-3.08-.88-.32-.26-.38-.8-.62-.99-.43-.36-1.34-.61-1.6-.91-.31-.34-.23-.92-.54-1.26-.28-.32-1.19-.53-1.6-.92-.67-.63-1.19-2.18-1.64-2.68-.73-.81-3.04-2.15-4.02-3.34-3.74-4.54-4.56-9.81-7.25-14.7-.77-1.39-2.21-3.22-3.56-3.99-.28,0-2.13.86-2.46,1.08-.44.29-1.4,1.59-1.82,2.04-5.11,5.31-9.84,12.76-15.57,17.17-.11.08-.1.35-.19.5-2.55.21-5.12.01-7.67.08-.7.02-1.34.41-2.14.39s-2.85-.81-3.24-.74c-.94.17,0,1.13.16,1.63,1,3.17,1.92,6.54,4.32,8.98,2.95-.2,6.63-1.05,9.12-2.7,2.82-1.86,5.66-6.44,7.79-9.09.7-.87,2.33-1.82,2.53-3.14l.51.02c1.43,1.33,3.71,2.02,5.22,3.06.81.56,1.45,1.67,2.2,2.11s1.74.45,2.5.92c-.5-3.52-.56-6.9-3.42-9.35-1.55-1.33-3.1-2.16-5.21-1.8.29-1.89,3.11-1.33,4.5-1.43,1.54-.11,2.42-.83,4.11.19.59.36,2.12,1.48,2.72,1.95,3.8,2.98,2.89,7.86,4.67,11.88.79,1.79,2.35,3.55,3.28,5.36.25.48.7.75.5,1.47-.19.2-2.57-.85-3-1.13-3.37-2.18-6.9-4.39-10.28-6.63-1.14-.75-1.97-1.71-3.06-2.3-2.14,1.98-3.51,4.66-5.42,6.83-.58.66-2.05,2.15-2.69,2.71-.69.61-2.15,1.64-3.04,1.59-2.56-.15-2.7-.06-5.14.24-1.72.21-3.52-.12-5.68.14-.98.12-2.4-.53-1.99.89.05.18.46.15.58.3.99,1.19,3.13,2.26,4.64,2.75,1.22.4-.46-1.37.72-1.08.56.14.87.61,1.44.72,8.19,1.55,17.29-.09,25.51-1.46,1.85-.31,3.79-1.2,5.81-1.38,3.3-.3,5.07.06,7.82,1.83,1.46.94,2.64,2.19,3.85,3.32.99.92,2.65,1.68,2.87,3.27s-1.89-.86-2.18-1.06c-.94-.65-5-2.59-5.91-2.36-1.55.39.71,1.1.8,1.17.31.23,1.24,1.92,1.85,2.29l-1.05,1.74-16.18,5.58c0,.4-.08.73.17,1.09.12.18,2.66,1.65,3.25,2.15,2.43,2.04,5.06,6.28,4.87,9.53-.26,4.49-1.95,8.97-1.42,13.64.09.79,1.28,4.25,1.05,4.52l-2.75-2.29c-3.03-3.04-5.58-6.58-7.83-10.33-.38-.63-.52-1.7-.92-2.24-.1-.14-1.58-1.24-1.7-1.27-.91-.29-5.17,1.32-6.5,1.65-2.4.59-4.84,1.12-7.28,1.54-.03.39-.05.79.06,1.18s1.41,1.35.12,1.32c-.7-.41-.41-1.33-.71-1.81-.36-.59-3.23-.3-4.24-.43-.72-.1-2.8-.6-3.43-.89-.49-.22-.4-.65-.52-.73-.32-.21-.92-.05-1.36-.27-.47-.23-.66-1.03-1.1-1.42-1.71-1.53-4.32-3-6.1-4.69-.84-.8-1.44-1.8-2.15-2.7l4.54,3.19c4.52,2.34,9.39,2.01,14.27,1.05,2.97-.59,9.52-3.51,12.15-2.64s5.66,8.65,7.23,11.12c.51.81,1.53,1.55,1.99,2.14.49.63.28,2.01,1.91,1.69.4-1.63-.72-2.37-1.26-3.59-1.1-2.5-.02-7.76.19-10.6.09-1.16-.26-3.8-.83-4.77-.06-.1-.42-.09-.48-.2-.21-.36-.21-.83-.47-1.16-1.23-1.53-2.36-2.71-4.44-2.26s-5.83,2.53-8.16,3.34c-13.5,4.73-24.1,3.41-34.01-7.37-.91-.98-2.09-2.26-2.32-3.6.62.38,1.35,1.05,1.8,1.61,1.03,1.26,1.55,2.3,3.06,3.42,11.74,8.74,28.69.12,40.47-4.49,2.36-.93,4.68-1.75,7.11-2.6.46-.16,1.06-.23,1.16-.82-2.05-.3-3.98.45-5.97.69-6.05.74-13.1,1.77-18.75-.98-1.25-.61-3.49-2.56-4.68-2.88-.75-.2-1.57.02-2.38-.14-3.97-.81-7.29-4.5-10.05-7.03-.48-.44-1.99-.98-2.68-1.64-3.46-3.32-4.71-12.21-5.96-16.88s-2.48-9.94-4.68-14.39c-1.23-2.5-2.24-3.78-4.93-4.78-.7-.26-2.62-.21-2.88-1.08-.07-.22-.14-.85.17-.89,1.91-.23,2.58.35,4.48-.92,2.35-1.57,4.46-4.09,6.94-5.57l2.78-3.22c-2,.23-3.52,1.71-5.32,2.41-4.98,1.95-11.4,2.45-16.26,5.34-1.14,1.11-2.18,2.5-3.36,3.63-3.4,3.26-10.43,7.52-15.45,7.78-.52.03-.82.53-1.35-.29,1.25-.81,2.98-.58,4.33-1.06,2.56-.92,6.6-5.5,8.25-7.64,5-6.49,6.34-13.57,7.83-21.6.17-.94.42-2.21.47-3.13.02-.32.13-1.26-.55-.91-1.03.53-2.45,2.29-3.45,3.03-3.82,2.84-8.56,5.04-13.13,6.3l-.15.53c1.33,4.54,1.18,9.61-2.69,12.81-.38.32-2.32,1.57-2.83,1.84-.31.17-1.43.88-1.68.66,1.57-2.65,2.04-6.12,1.81-9.18-.48-6.27-5.88-16.55-2.47-22.24.85-1.42,1.61-1.07,2.6-1.66,3-1.81,6.6-3.68,9.94-5.25.54-.25.9.07.72-.87-1.42-.33-2.27,1.11-3.49,1.36-3.57.75-8.46-.85-11.89-1.63-3.19-.73-7.19-.37-9.38,2.29-.13.63,3.89,8.07,4.52,9.41,1.62,3.46,3.55,7.37,4.95,10.87.93,2.31,2.25,5.91,1.46,8.29-.52,1.59-1.24,2.18-1.64,4.47-.71,4-.91,8.05-3.16,11.59-.31.49-.41.97-1.15.82,3.79-6.65,2.22-14.75-.65-21.47-4.16-9.71-9.5-19.28-14.53-28.64-1.18-2.2-2.05-4.55-3.37-6.7-.28-.45-.63-.86-1.23-.74,1.38,3.58,2.65,7.24,4.14,10.78,2.35,5.57,5.29,10.91,7.64,16.46,1.68,3.97,4.11,9.82,1.54,13.88-.15.24-.54.16-.71.49-.69,1.36-1.17,3.51-1.74,5.04-.2.54-.06.54-.8.46-.16-1.89.22-4.09,0-5.93ZM320.83,333.78c.62-.77,1.79-.96,2.36-1.42.94-.76,1.67-5.77,2.13-7.22.98-3.11,3.09-6.41,3.8-9.51.07-.29.48-1.34-.2-1.27-.61.06-2.89,4.89-3.24,5.75-1.04,2.56-1.53,5.35-2.52,7.91-.37.96-2.79,5.19-2.34,5.75ZM345.42,321.43c-.52-.55-2.94-3.83-3.19-3.83-1.7,1.19-2.78,2.95-4.32,4.31-3.4,3.01-6.6,4.2-7.65,9.25-.92,4.4-1.25,9.38-2.32,13.86-.74,3.07-1.99,5.84-3.15,8.72-.18.43-.63.25.18.89,1.19-1.38,3.13-2.24,4.05-3.86,1.44-2.52,3.42-8.57,4.31-11.52,1.11-3.68,1.49-10.64,5.76-11.87,2.67-.76,6.49-.94,9.28-1.15,2.39-.18.59-1.65-.37-2.54-.83-.77-1.78-1.44-2.57-2.27ZM335.94,350.33c.6.11.94-.32,1.4-.57,5.37-2.98,6.13-14.06,6.7-19.57.19-1.86-.61-1.87-1.53-.45-1.06,1.62-.82,2.91-1.26,4.5-1.39,4.98-3.01,9.78-4.9,14.52-.21.52-.55.92-.41,1.57Z"/>
  <path class="cls-1" d="M242.95,549.59c-2.08.35-4.4,2.4-5.76,3.95-5.57,6.31-11.84,15.35-14.99,23.14-.17.41-1.35,3.13-.12,2.76l9.89-4.86,9.39-1.4c.6-.4.25-2.06.37-2.87.62-4.11,1.71-8.23,4.45-11.38,1.82-2.1,3.84-3.9,5.34-6.34l3.13-2.27c.3.3-1.27,1.7-1.58,2.03-1.07,1.18-3.53,6-4.01,7.67-.4,1.39-1.37,6.57-1.26,7.74.08.86,1.69,1.61,0,2.2-.31,3.59.84,7.26,1.1,10.74.17,2.31.48,6.05-1.46,7.55-1.09.85-4.85,2.86-6.21,3.5-1.52.71-3.31,1.26-4.93,1.73-.51.43,3.46,1.55,3.85,1.73,3.02,1.38,5.73,4.12,9.37,4.65,1.92.28,8.25.39,8.19-2.45l-2.98-12.47c-.67-3.48-1.09-6.89-1.51-10.35-.61-5.01-2.07-10.93,1.27-15.26,1.53-1.99,8.76-7.67,11.12-8.67,1.34-.57,3.43-1.12,4.88-1.06.57.46-5.24,2.48-5.72,2.73-5.47,2.87-6.91,7.73-6.52,13.64.68,10.29,3.99,21,6.39,31.02,1.03,4.33,1.64,8.77,2.98,13.03,1.11.33.78-1.27.69-1.95-1.01-7.6-3.48-15.72-4.26-23.44-.93-9.24,3.73-14.33,8.97-20.89.4-.5-.07-1,1.04-1.4.58-.21.86-.41.75.37-.97.78-1.58,1.84-2.05,2.98-.73,1.76-.83,3.58-1.26,5.21-.25.94-1.41,1.84-.96,3.27.31.99,3.41,1.4,4.18,2.12,1.64,1.53,3.48,6.81,4.83,9.02s4.25,6.03,6.62,6.69c.88.24,1.75.47,2.68.38-.03.44.17.74-.23,1.09-.31.27-3.69,2.35-3.98,2.43-1.13.32-4.83-.22-5.69-.99-.6-.54-2.47-2.71-3.04-3.43-.89-1.13-1.56-2.56-2.44-3.67-.34-.43-.4-.99-1.16-.82.13,1.72.17,3.47.4,5.18.43,3.16,1.66,9.31,3.75,11.71.41.47,2.29,1.32,2.32,1.63.08.87-1.69.04-1.99-.17-1.25-.88-1.6-2.33-2.68-3.25.26,1.57.21,3.29.39,4.83.15,1.24.61,2.76.7,3.98.18,2.54.16,6.84-2.06,8.46-1.12.82-3.09,2.08-4.31,2.81-.73.44-1.63.89-2.45,1.15-.49-.24.36-1.34.53-1.53.61-.68,1.64-.89,2.01-2.04.12-.37.56-3.57.5-3.77-.09-.29-.46-.59-.83-.53-1.14.19-3.29,2.09-4.56,1.23-.15-.1-1.73-2.71-1.93-3.1-.3-.6-1.18-3.57-1.47-3.56-1.18,1.09-2.23,2.33-3.41,3.42-1.46,1.36-3.66,3.44-5.5,4.21-2.17.9-5.78.03-7.91-.89-9.04-3.89-14.64-9.59-25.26-10.35-1.32-.09-2.52,0-3.78.36-.14-.72.34-.85.82-1.15,4.53-2.86,12.86-3.35,17.77-1.44,4.79,1.86,9.32,5.09,13.89,7.34,1.94.96,5.87,2.1,7.9,1.29,1.08-.43,4.54-3.4,4.88-4.48.4-1.25-.65-3.33-.93-4.7-.23-1.12-.24-2.52-.45-3.69-.58-.81-3.27,2.49-3.77,2.88-2.16,1.68-5.91,2.5-8.62,2.13-4.31-.58-7.7-3.69-11.39-5.52-3.28-1.63-7.17-2.38-10.76-3.09-.1-.5.12-.86.6-1.01,3.82-1.22,7.88-2.01,11.72-3.38,1.35-.48,3.96-1.38,5.05-2.08.69-.44,1.27-1.49,1.34-2.33.38-4.46-1.05-9.04-1.11-13.48-.44-.61-3.74.36-4.49.68-4.22,1.81-7.47,8.73-10.39,12.27-1.54,3.4-3.8,6.01-5.95,8.87-1.59,2.11-2.22,3.82-4.5,5.5s-7.16,2.67-10.07,2.88c-1.71.12-3.29-.52-5-.41-1.49-.93.46-1.6,1.22-2.29s1.84-1.74,2.45-2.58c1.01-1.39,1.65-3.12,2.31-4.51.43-.91,3.11-6.38,2.78-6.77-1.8,1.05-4.01,1.96-5.74,3.07-2.18,1.4-3.48,2.73-5.05,4.59-.68.81-3.01,2.58-3.87,3.1s-2.29,1.22-2.97.21l-7-9.19c-2.47-2.72-7.56-6.7-11.25-7.12-.69-.08-1.21.38-1.89.3l.4-1.04,1.4-.4c-2.4.18-4.66-.09-7.01-.37-1.29-.15-2.07.12-3.43-.53-1.14-.55-1.7-1.49-.12-1.52,1.42-.03,3.65.78,4.96.62.71-.09,2.98-1.31,3.62-1.79,2.13-1.6,3.49-4.08,5.06-6.09,4.22-5.43,8.8-13.09,14.42-16.87,4.69-3.15,10.53-3.41,15.95-4.38.1-.49-.37-.39-.72-.53-1.97-.76-4.93-1.92-6.59-3.12-5.79-4.19-8.71-15.33-11.68-21.77-2.4-5.21-5.18-9.23-8.5-13.81-1.94-2.69-4.35-7.11-8.02-7.84-.67-.13-1.15.25-1.65.2-3.56-.35-3.49-1.08-7.1.64-7.88,3.75-11.94,9.47-13.65,18-.39,1.95-1.48,1.25-1.38.44.22-1.73,1.46-3.49,1.37-5.29-2.65,2.35-3.39,6.19-7.7,5.73-2.22-.24-14.66-4.83-15.32-4.29-.17.86.44.79.9,1.08,2.08,1.32,3.93,2.62,5.84,3.96s3.93,1.61,5.47,2.72c1.76,1.27,3.14,3.59,4.81,4.54.83.47,1.59.81,2.58.66.93-.14,1.17-1.38,2.34-1.09.31,1.27-.74,1.25-1.54,1.81-.23.16-.24.52-.35.6-.37.24-5.14,2.22-5.5,2.27-1.5.2-3.4-.98-4.49-1.97s-2.15-2.46-3.23-3.59c-5.12-5.34-8.81-10.11-15.74-13.41-1.36-.65-2.91-1.36-4.4-1.53-.08-.63.82-.35,1.26-.36,3.74-.09,8.83,1.22,12.5,2.25,2.71.76,5.27,1.84,7.92,2.51,1.19.3,1.85.88,3.25.57.34-.08,2.52-1.62,2.67-1.83.2-.26.13-.79.44-1.17,4.73-5.92,8.86-13.27,17.2-14.47,1.99-.28,4.08.1,6.03-.08,3.07-.3,3.33-1.09,6.85-.02,6.55,2,10.89,7.51,15.72,11.8.33.29.88.23,1.25.57,4.87,4.52,8.42,15.39,11.36,21.54,1.54,3.22,3.85,8.16,6.75,10.15,3.29,2.26,5.99,2.4,9.6,3.36.91.24,1.63-.35,1.85,1.03.25,1.5-2.4.51-3.01.48-2.6-.13-7.72.15-10.13,1.04-.62.23-.44.65-.75.76-.77.26-1.72.19-2.6.58-6.87,3.01-11.26,11.86-13.87,18.5-.32.82-1.46,4.83-1.64,5.02-.09.09-1.17.34-1.06-.52.15-1.13.97-2.26,1.36-3.32.69-1.89,1.39-3.56,2.15-5.4.15-.36.83-1.4-.09-1.17l-7.12,9.6c-1.01.37-1.41,1.46-2.18,2.12-1.33,1.14-2.9,2.07-4.55,2.66-.07.68.72.28,1.1.2,3.52-.76,4.14-1.08,7.82.05,4.7,1.45,8.27,5.3,11.21,9,.53.66,2.83,4.32,3.09,4.4,1.21.38,1.07-1.11,1.7-1.68.4-.36,1.43-.58,2.05-1.01.68-.48,1.16-1.28,1.83-1.76,1.77-1.26,4.97-2.33,6.59-3.77.56-.5-.27-.37,1.27-1.3,1.95-1.18,3.32-6.03,4.17-8.07,2.07-4.97,5.99-11.23,9.39-15.45.55-.68,4.27-5.13,4.56-5.33.22-.15.66,0,.88-.16.2-.13.29-.71.61-1.02,1.82-1.73,10.9-6.15,13.36-6.43,1.33-.15,2.76.04,4.11-.03v1.08c-1.61.18-3.69-.26-5.22,0ZM225.13,580.51c.23-.15-.27-1.05-.53-1.06-.22,0-3.87,1.72-4.05,1.89-.43.39-.95,1.8-1.44,2.34l-5.49,11.95c.66.13.88-.32,1.23-.74,3.53-4.2,5.88-10,9.56-14.11.31-.35.62-.21.71-.26Z"/>
  <path class="cls-1" d="M250.57,226.48c-1.04.88-2.68,1.6-3.82,2.48-.68.52-1.66,1.88-2.19,2.13-.46.22-1.09.08-1.36.25-.14.09-.3.78-.8,1.18-3.76,3-8.29,3.04-12.68,3.87-.79.15-4.44.97-4.56,1.56.86,2.43-.91,3.63.26,6.16.66,1.42,1.95,2.58,2.59,3.59,4.52,7.15,8.98,15.82,12.3,23.61s2.4,11.84,1.72,20.2c-.08.95.11,1.96.01,2.89-.16,1.57-.66,3.25-.73,4.85-1.32.26-.29-1.06-.33-1.97-.15-3.54-.73-8.23-1.13-11.85-.52-4.62-6.7-15.73-10.07-19.07-.78-.78-2.96-2.83-3.75-3.44-.42-.33-1.96-.96-1.98-1.26-.06-1.06,1.78-.19,2.25.19,1.03.81,2.6,2.43,3.5,3.39.43.46.64,1.25,1.25,1.63.28.05.22-.33.18-.54-.11-.68-3.53-6.94-4.17-8.06-.97-1.7-2.43-3.22-3.03-5.07-.46-.6-.64.09-.74.5-.27,1.04-1.07,3.82-1.03,4.68.13,3.69,3.26,8.01,3.86,11.62s-.15,8.46-2.01,11.5c-.22.36.07.65-.79.47.46-2-.53-3.29-.99-4.94s-.92-4.3-1.86-5.61c-.3-.41-1.7-.82-2.36-1.32-1.88-1.42-3.44-3.93-5.53-5.27-.06-.93-.12-1.91-.05-2.84.04-.61.44-3.05.72-3.24.4-.26,1.15-.15,1.44-.73l-2.14-4.99c0-.37-.66-.27-.9-.2-.32.1-2.91,5.04-3.43,5.85-.17.26-.56.22-.73.48-.89,1.43-2.22,3.43-2.94,4.9-.87,1.75-.39,2.33.64,3.82s3.63,3.94,5.01,5.06c4.21,3.41,14.38,8.51,14.55,14.6.03.95-.01,1.85.02,2.84.12,3.27.51,7.46-1.27,10.25-.88-.63-.27-.62-.1-1.17.76-2.52.86-3.97-.17-6.46-2.01-4.86-8.74-9.06-12.97-11.85s-8.38-6.12-13.56-5.69l.17-1.09c.29-.39.61-.38,1.05-.34,2.27.19,4.13,1.8,6.33,2.15-1.35-1.82-3.08-3.38-3.84-5.57,1.02-2.98,2.63-5.65,4.04-8.43.23-.44.91-.55-.02-1.1-.04-.03-.3.53-.63.83-3.59,3.22-6.89,2.62-11.07,4.02-2.89.97-6.46,3.42-5.03,6.85,5.14,2.74,10.19,5.52,15.09,8.65,4.59,2.94,10.79,6.13,11.81,11.93.47,2.69.28,5.77.88,8.47.3,1.35,1.16,2.9,1.33,4.42.13,1.12-.03,2.27.03,3.39-1.18-.63-.6-2.34-.88-3.62-.37-1.68-2.36-7.15-3.15-8.72-1-1.99-4.05-4.71-5.91-5.96-9.17-6.12-18.98-10.85-28.58-16.39l-7.16-3.09c.94,1.15,2.32,2.09,3.48,3.01,1.49,1.19,3.43,2.99,5.17,3.99,1.96,1.12,4.8,1.66,6.25,3.82,2.57,3.84,5.66,5.23,9.02,8.25,2.41,2.16,2.16,2.9,2.79,5.84s.94,5.97.64,9.09c-.08.78-.31,2.07-1.08,2.33.11-1.5.54-2.41.2-3.98-.18-.82-1.84-4.12-2.35-4.84-.46-.65-6.16-5.43-6.85-5.74-.81-.37-1.21-.38-1.08.53h-.36s-.17-1.81-.17-1.81c-2.11-1.59-4.25-3.12-6.41-4.67-1.04-.75-2.18-2.02-3.52-2.67-3.84-1.85-8.67-1.79-12.67-2.8-1.13-.28-7.26-3-7.81-2.44.23,1.02-.25,2.09-.25,2.99,0,6.49-.4,11.61-.84,18.04-.07.99,0,2.03.05,3.02.08.11,2.17.92,2.56,1.15,2.55,1.51,5.07,3.26,7.48,5.18,1.15.91.75.04,1.64,1.58s1.87,3.2,2.74,4.83c.58,1.09.61,2.34,1.91,3.13.31-.57-.09-1.64-.23-2.29-.51-2.32-.92-4.66-1.32-6.96-.49-2.75,3.91-1.24,5.5-1.17,2.43.1,11.53-.05,12.35-2.77.49-1.61-1.03-3.18.25-4.43.62,1.58,1.11,3.1.88,4.83-.09.69-.58,1.36-.62,1.88-.06.76.95,1.62,1.01,2.47.2,3.16-3.07,3.97-5.6,4.45-3.88.73-7.41-.19-11.3.03l2.15,10.29-.35,3.01c-1.62,0-.92-1.85-1.15-2.98-.88-4.33-5.68-7.96-9.56-9.51-3.05-1.22-6.67-1.98-9.8-.82l.58-1.39c2.82-.5,4.99-.08,7.69.67-1.25-1.29-3.02-2.26-4.56-3.17-2.67-1.58-4.33-.99-4.08-4.93.33-5.06,1.2-9.96,1.43-15.11.05-1.22.65-2.4-.17-3.77-1.35,1.77-.94,4.34-1.33,6.22-.87,4.18-4.61,8.01-6.71,11.64-1.32,2.27-1.88,4.05-1.48,6.77.12.8.74,1.21.71,1.99-.66.72-2.74-2.96-2.94-3.35-.42-.8-1.03-1.88-1.21-2.74-.17-.81-.51-3.63-.38-4.34.24-1.3,1.68-3.62,2.44-4.79,3.28-5.05,7.09-8.77,9.72-14.38.53-1.13,1.97-4.08,2.09-5.11.09-.77-.05-.44-.53-.53-4.32-.8-6.4.04-9.09,3.49-.22.28.06.68-.8.46-.24-.27,1.14-6.45,1.55-7.09.27-.43,1.78-1.43,2.26-1.88.34-.31.38-.96.77-1.1.55-.19,2.26-.62,2.82-.7,2.94-.41,6.29.8,9.15,1.42l-2.31-2.9c-2.72-3.17-.72-6.94.16-10.4,2.26-.12.9,1.14,1.13,2.26.27,1.31,3.96,5.68,5.17,5.6,1.15-.07,1.11-4.53,1.83-4.64,2.82-.16,5.5,1.13,7.88,2.53l.56-.89c-1.04-4.05-1.08-8.23-1.41-12.36,1.76-1.27,3.62-1.52,5.55-2.19,8.27-2.87,14.48-4.92,22.09-9.57.8-.49,1.28-1.56,2.18-1.96-.11,1.84-2.44,3.18-3.69,4.32-1.64,1.5-3.94,3.49-5.67,5.19-1.97,1.94-4.77,5.16-7.52,6.15-2.08.75-4.41,1.35-6.49,2.14-1.31.5-2.51,1.39-3.92,1.65.17,2.54-.69,5.81.74,8,.75,1.14,3.98,2.75,5.35,3.28,2.72,1.04,1.5-2.56,1.85-4.23.1-.47.71-2.19.93-2.67.55-1.22,1.76-2.2,2.94-2.82,3.5-1.84,8.08-2,11.99-3.48,3.65-1.39,7.02-3.97,10.28-6.08.18-.26.07-.81-.02-1.13-.59-2.22-2.01-5.16-2.37-7.35-.13-.81-.24-2.74-.09-3.47.06-.29.58-.2.74-.45.26-.42.24-1.09.55-1.55,1.6-2.36,4.15-5.4,6.17-7.32.67-.63.59-1.72,2.26-1.33.33,1.15-.98,1.43-1.09,2.35-.23,1.76,3.63,7.65,4.9,9.14.91,1.08,1.49,1.02,1.61-.5.22-2.64-.31-5.4.39-8.06.86-.17,1.55-.81,2.37-1.05,4.01-1.16,8.23-.55,12.35-1.68,2.52-.69,6.12-1.95,8.51-3,1.93-.84,3.76-1.9,5.33-3.3.41.23.17,1.08,0,1.43-.21.44-2.01,2.39-2.45,2.76ZM214.71,240.63c1.28,4.89,3.06,9.75,5.32,14.29,1.34,2.71,2.49-2.77,2.17-3.96l-7.48-10.33Z"/>
  <path class="cls-1" d="M186.65,388.63c-.01-.12-.43-.4-.37-.71l.72-.19,3.51,7.46c.56,1.52.73,3.31,2.27,4.21.61.36,4.01,1.2,4.83,1.29s4.71.17,4.79-.89c-.27-.67-.49-1.36-.81-2.01-.84-1.66-3.25-6.41-4.32-7.55-2.87-3.08-9.08-6.02-12.61-8.98-.9-.75-2.49-2.1-3.07-3.05-1.4-2.29-2.61-10.23-1.97-12.79.55-2.2,1.45.88,1.81,1.44,1.17,1.78,4.13,3.22,6.09,3.98.71.28,4.43,1.76,4.5.53,0-.12-.73-2.16-.81-2.25-.72-.93-1.82-2.49-2.6-3.33-.63-.69-1.79-1.22-2.16-1.8-.84-1.32-1.24-3.6-2.3-4.92l-.02-.58c.33-1.13,3.35-2.57,4.27-3.31,6.61-5.32,10.75-11.49,10.99-20.13.02-.73-.84-2.62.54-2.34-.24,1.08.3,2.07.37,3.05.13,1.89-.12,3.88-.01,5.77.09,1.56.73,3.9.74,5.39.01,2.47-4.04,8.87-5.78,10.79-2.03,2.23-5.12,3.86-7.19,6.12,1.47,1.17,2.23,2.73,3.24,4.24.17.25.54.25.72.5.63.93.61,2.19,1.12,3.13,1.32,2.38,5.79,2.81,8.22,3.65,2.64.91,4.77,2.23,7.2,3.23s5.1,1.65,7.55,2.7c0-1.48-.48-2.94-1.17-4.22-3.29-1.84-6.27-4.18-9.43-6.22-2.74-1.76-5.98-2.93-8.28-5.39-.76-.98-.75-5.65-.47-6.94.21-.97.72-1.37,1.69-1.36.1-1.23-.35-2.53,1-3.17l12.63,3.09c5.72,2.37,5.76,6.4,5.81,11.81.03,3.48-1.02,6.37-1.02,9.69,0,.77.55,1.89.36,2.84l.31.41c2.25.84,4.57,1.76,6.59,3.06,3.9,2.5,10.09,11.62,11.6,16.17.22.68.46,1.97.54,2.7.04.39.27,1.99-.36,1.98.3-4.65-3.59-8.16-6.83-10.98-6.16-5.37-12.15-6.47-19.53-9.25-3.26-1.23-7.49-3.74-10.9-4.21-.32-.04-.89-.17-.88.16.28,2.86,1.81,5.19,2.63,7.8.74,2.35.79,4.27,1.61,6.67.32.93.93,3.49,1.33,4.06s3.78.4,4.69.36c5.49-.25,7.99-.84,13.22,1.81.72.36,3.35,2.88,4.11,3.69.8.85,1.38,2.64,2.42,3.51.84.69,3.48,1.13,4.66,1.83,3.14,1.87,10.05,8.39,11.81,11.57.53.95,1.58,2.88,1.19,3.85-.92-.51-.74-1.41-1.11-2.13-1.13-2.24-3.43-5.73-5.57-7.02-12.61-7.58-31.91,3.06-44.93,6.11-2.36.55-4.97.75-7.36,1.27-1.16.25-2.07,1.04-3.45.69l1.98.36,10.42-1.45c3.57.28,7.63-.37,11.13.04,3.08.36,5.87,3.64,8.12,5.55-.78.5-1.36-.45-2.32-.56-.9-.1-2.31-.03-3.27.01-6.53.31-13.25.99-19.75,1.84-1.99.26-4,.67-5.97,1.05.04.39.46.64.75.87,2.33,1.91,4.95,4.44,7,6.66.61.66,2.77,3.8,3.28,3.94.84.23,2.81-1.6,3.6-2.08,2.76-1.67,6.71-4.39,9.51-5.6,2.55-1.1,5.58-.76,7.97.53.29.16.25.49.55.67,2.81,1.59,5.88,2.78,7.27,5.96-.38.77-1.1.23-1.53-.18-1.54-1.44-2.41-3.64-5.12-3.62-3.46.03-8.11,3.27-11.09,5.12-1.54.96-3.05,2.27-4.45,3.18-2,1.29-2.36,1.45-4.25,0-4-3.09-6.66-7.79-10.44-11.15-.4-.36-.59-.86-1.26-.72-.28.28,1.12,2.35,1.44,2.7.52.57,1.21.83,1.6,1.28,2.28,2.67,4.08,5.6,4.49,9.18.12,1.03-.21,2.56.21,3.39.13.25,2.48,2.95,2.7,3.06.58.29,1.19.18,1.8.18.49.37.06.69-.54.72-1.08.05-2.17-.03-3.25,0-.5,0-.97.32-1.43.32-1.64.01-3.09-.71-4.13-1.94-2.9-3.39-1.79-5.39-2.61-9.26-.26-1.24-.8-3.43-1.15-4.6-.85-2.81-2.54-5.51-3.61-8.26-.73-.74-4.07-.2-5.38-.37-2.39-.32-2.61-1.01-3.97-2.51-.78-.85-1.21-1.36-1.99-2.32-1.09-1.35-2.61-2.34-2.88-4.32.18-.43.73-.24,1.06.06,1.78,1.66,2.08,3.38,4.91,3.68.66.07,2.52.22,2.29-.84-.62-.6-.94-1.43-1.42-2.11-.32-.46-1.56-.78-.91-2.05.52-1.02,5.73-1.74,7.03-2.16l-8.82-6.82c-2.67-2.4.02-5.39,1.08-7.92,3.3-7.86,4.9-14.94,5.24-23.54.05-1.39.17-3.75-.03-5.04-.12-.82-.87-1.44-.71-2.35.52.09.7.66.91,1.07.68,1.31,2.06,3.99,2.26,5.31.15,1.02-.32,1.61-.23,2.35.09.82.55,2.55.74,3.6.63,3.45,1.51,6.87.92,10.43-.91,5.5-3.48,10.88-5.6,15.99l.26,2.38,5.96,4.21c.92-.26,6.66-1,6.64-1.64-2.15-2.22-5.93-4.89-6.1-8.3-.06-1.2.97-4.46,1.42-5.74.99-2.79,3.25-6.34,3.25-9.34,0-1.8.19-4.04,0-5.75ZM214.24,365.54c-2.95-2.8-7.67-2.79-11.4-3.7-.19.95.21.62.71.89,4.2,2.28,8,5.14,12.16,7.46l.98,1.72c.36-.12.19-.9.15-1.23-.22-1.59-1.43-4.04-2.6-5.14ZM189.88,398.16v6.29c0,.09-.75,1.16-.9,1.62-.47,1.46-2.06,5.81-1.98,7,.07,1.1,1.9,3.95,3.06,4.15,2.81.5,9.69-2.51,12.77-3.42,5.89-1.75,17.3-5.77,23.02-4.66.39.08,1,.45.73-.37-.07-.21-3.44-1.64-3.95-1.8-7.19-2.27-14.6.39-21.78-.16-1.9-.14-4.05-.93-6.02-1.1l-4.94-7.55Z"/>
  <path class="cls-1" d="M349.61,227.31c-1.19.75-3.25,1.55-4.12,2.54-1.71,1.96-2.72,5.36-3.08,7.89,2.01-.21,3.29-1.59,5.52-1.09.2.03.72,1.07.86,1.37.37.79.2,1.9,1.31,1.48.78-.29,2.41-2.52,3.56-2.84,2.9-3.22,7.93-4.62,11.75-1.95.72.51,1.3,1.38,2,1.96,4.31,3.56,9.43,7.55,14.68,9.78,3.9,1.66,8.21,2.7,12.48,2.45-.13.71-.75.6-1.25.73-3,.79-11.44.4-14.74-.04-1.01-.13-1.83-.82-2.61-.99-.86-.18-1.71-.01-2.65-.23-1.11-.26-3.89-2.19-4.98-2.93-3.1-2.11-5.86-4.72-8.83-7-1.25-.63-4.05-1.04-5.35-.64-.55.17-1.95,1.63-2.63,2.05-.55.34-1.27.32-1.78.75-.22.29.51,4.06.58,4.86.08.88-.36,3.96.54,4.14,2.15-1.01,4.06-2.53,6.49-2.86,3.8-.51,5.39,2.27,8.55,3.57,2.81,3.67,6.61,5.06,10.78,6.49.35.12.2.65.48.71,1.43.3,3.03-.34,4.45-.37.22.86-.19.59-.47.8-2.75,2.16-4.65,1.86-7.64,3.14-1.53.65-3.97,2.01-5.03,3.25-1.74,2.03-3.83,8.66-4.1,11.37-.35,3.47.38,9.83-1.67,12.72-.52.74-1.4,1.29-1.96,2-.37.47-.3.78.18.9.56.13,2.03-.69,2.59-1.01,2.63-1.49,8.77-10,10.48-12.9,2.04-3.46,3.11-7.83,3.62-11.84.11-.88,0-1.78.03-2.66,1.08-.35.79,1.31.74,1.99-.12,1.57-.75,3.51-.75,5.01,0,.72.04.58.73.55.02-.44.18-.83.42-1.2,2.48-3.82,7.35-12.09,11.09-14.1,3.29-1.76,8.01-2.59,11.69-1.97.4.07,1.97,1.06,1.98,1.25-.86.96-2.47.34-3.49,1.01-.1.07-.13.41-.36.6-.3.25-.71.35-1.02.71-1.72,1.99-4.11,9.11-5.28,11.99-.18.45-.39.8-.28,1.33.6.13.82-.08,1.27-.35,2.54-1.52,4.81-3.35,7.24-4.99.66-.44,4.41-2.32,4.92-2.18.46.13,5.01,4.9,5.84,5.71,2.74,2.71,5.69,6.37,9.43,7.82,1.08.42,2.32.53,3.47.42,1.41-.13,3.11-1,4.34-1.06.72-.03.57.08.55.73-1.81.03-3.4,1.2-5.25,1.41-2.02.23-4.82-.16-6.79-.71-.96-.26-2.76-1.27-3.62-1.42-3.59-.64-5.37-1.73-8.1-4.13-1.05-.93-3.42-3.87-4.31-4.33-.42-.22-.75-.27-1.2-.13-.6.18-3.2,2.55-4.07,3.13-1.16.78-4.71,2.49-5.42,3.39-.62.79-1.19,3.42-1.72,4.58-2.85,6.26-8.29,20.84-12.88,25.07-3.5,3.23-10.2,5.85-14.91,6.49-1.11.15-2.22.08-3.33.09-.09-.49,1-.57,1.35-.62,2.35-.38,3.11-.27,5.24-1.59,4.62-2.87,8.9-7.96,10.6-13.14l5.83-13.78c-.5-.48-3.88,2.01-4.49,2.52-2.27,1.9-3.79,4.67-6.41,6.18-.93.54-4.41,1.71-5.56,1.99-1.88.46-4.27.32-5.93.9-1.13.4-5.61,4.13-6.38,3.51,1.3-2.03,2.92-4.56,3.77-6.84,1-2.65.66-5.39.9-8.1.4-4.6,1.03-8.15.28-12.86-.34-2.14-1.13-4.3-1.71-6.38.79-.13,1,.5,1.26,1.08,1,2.22.95,5.05,1.59,7.41.15.57-.1.58.75.51.58-1.88,1.16-4.17,2.36-5.74,2.14-2.78,7.64-3.72,10.6-5.59-2.76-.76-5.63-.56-8.28-1.8-1.67-.78-1.6-1.4-2.7-2.34-1.42-1.22-5.85-4.11-7.59-4.3-4.07-.44-3.41,2.65-3.57,5.56-.29,5.15-.54,10.96-.19,16.19.37,5.45,1.22,10.96,1.46,16.52.09,2.16.02,4.82-.74,6.84-.18.48-1.54,2.27-1.9,2.6-.82.75-3.18,1.69-3.76,2.35-.77.87-.83,1.57-2.26,2.6-.7.5-4.46,2.83-5.02,2.35-.19-.95.21-.61.71-.89,2.31-1.26,3.25-1.49,4.85-3.8,1.22-1.77,1.83-3.39,2-5.55.24-3.02-.49-5.93-.42-8.94-1.11-.94-2.01-2.15-3.08-3.11-.49-.44-2.22-1.46-2.45-1.8-1.07-1.56,1.78-4.38,2.02-6.09.82-.57,2.19,1.01,2.49.69-.03-.9.06-1.81.01-2.7-.44-8.61.55-17.63-.34-26.28-.2-1.94-.31-4.58-1.18-6.38-.23-.48-.44-.72-1.01-.61-.54,3.43-1.82,7.2-2.13,10.64-.16,1.76.05,3.6-.02,5.37s-.83,3.77-.21,5.59c.23.68,1.09,1.11.94,1.93l-1.46,1.15c.23,3.68-.07,6.52-2.16,9.58-.17.25-1.07,1.57-1.16,1.63-.18.13-.61,0-.89.17-.74.47-2.02,2.69-2.74,3.38-.34.33-2.22,1.41-1.69.29.09-.19.46-.43.63-.81.85-1.9,1.72-4.67,1.89-6.74.13-1.51.26-8.6-.07-9.66-.17-.57-1.67-2.42-2.06-3.34-1.53-3.61-1.64-7.6-6.34-8.41-.47-.08-1.16-.24-.53-.72,2.75-.9,5.22-3.56,8.16-1.87.88.5,1.3,1.47,2.27,1.51.62-1.65.51-3.48.81-5.13.16-.87,1.13-3.49.99-4.04-.03-.11-.52-.7-.73-.38-4.25,2.38-8.63,4.44-13.14,6.29-.72,1,1.02,5.68,1.26,7.06.54,3.13,1.08,8.33.65,11.4-.35,2.47-1.2,2.46-2.43,4.05-1.55,2.02-2.8,4.5-5.22,5.57-.68-.97.66-1.52,1.05-2.18.23-.38.86-1.6.92-1.96.5-2.93-.67-12.24-1.88-15.01-.4-.91-3.26-4.4-2.79-4.94,1.41.33,1.64,1.94,2.87,2.52l-.67-4.07c3.54-3.34,8.46-4.76,12.88-6.56l1.82-1.23c-2.93.34-5.83.25-8.73.8s-4.37.42-7.29.63c-.61.04-2.76.29-3.18.41-.17.05-2.47,3.36-2.02.86.15-.79,1.66-4.7,2.07-5.48.27-.51,1.26-1.69,1.76-1.84.89-.26,4.55-.14,5.66-.03,3.42.34,6.58,2.05,10.47,2.15,2.13.05,4.81-1.27,7.14-.72.34-.05.95-2.55,1.23-3.15,1.18-2.48,2.67-4.01,5-5.44,1.86-1.14,4.02-1.87,5.75-3.25.71-.25,1.29.28,1.19,1.02ZM381.38,278.53c2.47-2.07,3.45-5.14,4.57-8.21.2-.54.52-.93.34-1.63-.6.45-1.35,1.4-1.74,2.03-1.15,1.86-2.15,3.82-3.23,5.76-.38.69-1.23,1.56-1.45,2.15-.16.45-.26,1,.47.83.69-.16.78-.74,1.03-.94Z"/>
  <path class="cls-1" d="M459.33,411.47c.23-1.51-1.32-1.88-2.17-2.69-2.89-2.75-2.74-2.29-6.2-3.87-2.81-1.28-3.41-3.41-5.31-5.49-.29-.32-.54-.68-.96-.85-1.03-.3-3.03.57-4.25.67-1.95.16-3.48-.23-5.3-.82-2.39-.77-6.19-.65-9-1.07-.89-.13-2.7-.5-3.15-1.35,1.33-.03,2.78-.19,4.1-.4,2.27-.37,4.65-.72,6.83-1.07,3.75-.61,13.93-2.54,16.75-4.49,2.17-1.5,3.66-3.61,5.44-5.35.26-.26,2.18-1.93,2.32-2,.7-.35.63.61.37,1.09-.82,1.49-3.55,3.29-4.87,4.48-.38.34-.88.79-1.07,1.27l11.27-2.83,5.28,5.71c-.27-1.99-.22-3.96-.35-5.94-.04-.61-.33-1.17-.37-1.78-.1-1.62.32-4.32-.07-5.69-.16-.58-3.03-4.42-3.54-4.73-.7-.42-1.73-.5-2.39-1.23-1.14-.29-1.88,1.06-2.64,1.56-7.81,5.13-14.74,11.68-23.48,15.37-2.07.87-6.24,2.38-8.37,2.44-1.9.06-3.04-.55-4.66-1.05-2.01-.62-4.23-.84-6.27-1.64-1.85-.72-3.58-1.89-5.04-3.23.87-.49,1.74.83,2.39,1.2,3.42,1.95,6.18,1.54,9.92.68,1.34-.31,2.67-.99,4.02-1.31l1.98-5.99c.47-.33,5.22.31,5.78.76.52.42.05,1.35,1.43.7,1.59-.74,5.58-3.55,7.17-4.7,5.18-3.75,10.49-8.78,15.74-12.38,2.21-1.51,5.71-2.87,7.66-4.51.6-.51.64-1.34,1.45-1.25.01-.56.21-.82-.48-.67-2.79.61-6.05,3.2-8.88,4.07-6.62,3.54-16.72,11.97-23.59,13.12-.73.12-1.81-.35-2.8.36-.89-1.68-1.45-1.13-2.75-1.57-.5-.17-.85-.71-1.31-.84-1.17-.33-3.88-.19-4.06-1.87.78-.04,1.19.58,1.99.71,1.62.25,4.88-.39,6.38-1.08.05-.02.86-.72.89-.78.31-.63,0-2.09.11-2.96.43-3.29,4.59-6.68,6.01-9.82.85-1.89,1.46-4.54,1.89-6.57.64-.03.77-.17.73.55-.05.87-.57,1.74-.37,2.69,2.44-2.14,2.62-5.29,2.16-8.27.19-.23,4.52,3.14,4.84,3.61,1.27,1.85.46,5.15-.45,7.07-1.06,2.22-3.27,4.11-4.57,6.22-.29.47-.74.67-.53,1.44,1.2-.13,1.76-1.13,2.54-1.59,6.41-3.81,14.96-8.88,22.19-10.54,1.64-.38,3.94-.73,5.59-.38.76.16,5.62,3.21,6.02,3.78.23.33.4.77.35,1.18-1.27.04-2.04-1.14-3.38-1.06-.64.04-5.25,1.15-5.44,1.41-1,1.4,3.21,2.68,3.01,4.45-1.06,2.31-3.45,3.13-4.98,4.91,1.78-.3,3.4.63,4.93,1.01.53.13,1.13.02,1.64.16,1.66.46,6.03,1.82,6.58,3.49,0,1.48.48,3.11.54,4.5.09,1.93-.24,4.46-.2,6.49.15,7.12.93,14.53,2.01,21.55.2,1.33.9,2.87,1.05,3.99.11.84-.44.52-1.06.53-.28-1.35-1.14-2.58-1.63-3.95s-.82-3.54-1.35-4.77c-.71-1.66-2.58-3.63-3.31-5.32-2.73-6.32-1.62-14.92-2.37-21.73-.14-1.24.54-2.51-.81-3.15-2.13-1.02-5.52-1.14-7.85-1.9l-3.53,2.19c-.21.52-1.76.78-1.47,1.4.34.71,3.29,1.28,4.33,1.79,2.59,1.27,4.23,3.11,5.59,5.56.2.36.69.59.81.99.36,1.18.04,4.87.05,6.42.04,4.26-.07,8.97.36,13.31.08.78,1.22,3.62,1.09,3.77-.47.52-1.08-1.01-1.43-.98-1.86-3.06-3.92-5.47-6.13-8.18-.44-.54-.75-1.78-1.31-1.95-2.27.06-4.44,1.09-6.52,1.67-3.35.95-6.73,2-10.06,2.89-1.35.36-3.57.03-4.42,1.51,1.92.38,3.78,1.45,5.67,2.07,2.85.94,7.21,2.35,10.06,2.89,6.8,1.28,14.03.99,20.6,3.86,2.33,1.02,2,1.83,3.4,3.43.99,1.13.71.6,1.56,2.03s2.22,2.56,1.88,4.43c-2.41-.29-5.32-.85-7.75-.73-1.67.08-3.71.63-5.37.74-1.25.09-2.54-.08-3.78,0,.91,1.64,2.92,2.03,4.43,2.94,1.93,1.16,3.76,2.52,5.75,3.6.8.44,5.96,2.52,6.03,3.03-.4,1.71-.47,3.58-.82,5.27-.54,2.6-1.27,5.24-1.8,7.91-.84,4.29-1.78,10.13-1.36,14.46.05.54.13,1.55-.19,1.98-1.97-2.56-1.94-6.07-2.37-9.14-.12-.84-.65-1.84-.68-2.58-.04-.93.72-1.49.65-2.06-.05-.37-.51-.77-.59-1.21-.44-2.3-.65-4.75-.4-7.09.33-3.06,1.36-6.18,1.61-9.2-.55-.85-1.59-.85-2.34-1.29-2.5-1.47-4.92-3.19-7.34-4.54-3.83-2.14-5.37-2.25-9.78-2.1-9.96.34-20.96,1.45-30.76-.52-4.77-.96-8.85-3.34-11.86-7.2-1.93-2.48.96-.5,2.16,0,3.75,1.54,9.08,2.56,13.11,1.97,1.62-.24,6.21-4.76,6.79-4.63,1.07,1.16,4.36,2.02,5.11,3.2.44.68-.38.86-.56,1.45h11.87ZM462.38,411.11h11.51c.06,0,1.05-.37.9-.72-2-.01-3.96-.45-5.93-.73-3.01-.42-5.46-.77-8.47-1.61-.95-.27-2.06-1.15-2.87-.72l4.86,3.78Z"/>
  <path class="cls-1" d="M138.26,442.76c-4.34.51-11.08,5.08-15.04,7.26-5.03,2.77-9.88,4.92-14.1,8.92-.5.47-.99,2.04-1.93,1.41-.16-.11-.05-1.07-.93-1.06s-4.61,2.21-5.84,2.45c-4.49,1.25-6.08-.04-9.81-1.91-.94-.47-1.81-.65-2.87-1.44-.66-.49-1.98-1.95-.26-1.54,3.04.72,3.68,1.47,7.09.48,4.11-1.19-2.35-3.17-2.1-5.35.26-2.32,4.73-5.08,6.41-6.54.12-.43-.27-.67-.6-.83-1.81-.86-4.4-1.03-6.24-1.67-.57-.2-2.92-1.31-3.34-1.61-1.21-.88-1.1-3.47-.94-4.84.83-6.92,3.57-14.28,3.92-21.28.03-.62-.36-1.16-.36-1.76,0-2.93.48-7.9-1.06-10.38-.15-.25-.55-.21-.73-.48-.29-.43-.68-1.36-.71-1.92,3.57,2.78,3.61,6.49,4.41,10.52.4,2.03.68,4.08,1.07,6.12.45,2.37,1.54,3.5,1.72,6.2.1,1.56.13,3.87,0,5.41-.36,4.17-2.33,8.55-1.82,12.9,1.32.99,3.01,1.02,4.43,1.38,1.01.26,1.13.98,2.89.57.36-.08,4.89-2.71,4.94-2.99.05-.31.13-.77-.22-.92-1.03-.43-2.37-.54-3.29-.97-.64-.3-1.02-.91-1.57-1.32-.23-.18-.71-.11-.95-.29-.21-.16-1.37-2.29-1.46-2.68-1.01-4.32,1.21-8.64,1.69-12.91s.75-11.82-.42-15.71c-.33-1.09-1.22-1.99-1.35-3.14l2.16,1.97c2.02,2.74,2.66,5.8,4.68,8.56.67.92.47.89.9,1.67,1.06,1.89,2.28,3.71,3.08,5.74.78.56,5.83-1.89,7.15-2.3,3.74-1.17,9.62-2.26,13.49-1.61.94.16,1.84,1.39,2.69,1.65.57.18,1.05-.23,1.6-.21.86.04,1.75.88,2.72.71.21-.98-.28-.6-.72-.88-3.37-2.08-8.68-5.66-12.48-6.6-.39-.1-.79-.09-1.19-.07l.54,1.07c-.64-.44-1.38-.84-2.09-1.15-3.58-1.53-10.76-4.8-14.45-4.24-.83.13-1.42.88-2.35.71-.06-.72-.11-1.02.61-1.37,2.46-1.21,5.87.22,8.35.87.62.16,1.15.38.39-.39-.75-.54-1.69-.7-2.49-1.11-4.86-2.49-10.16-4.67-15.13-6.82-2.66-1.15-5.51-1.93-7.12-4.75-.29-.52-1.71-3.82-1.81-4.3-.29-1.35.06-3.03-.07-4.43h1.06c.17,2.04,2.02,3.24,3.87,3.52,2.6.4,5.85-.05,8.56.07,1.48.07,3.21.69,4.85.37.17-.69-.25-.69-.6-1.01-4.05-3.67-7.27-6.4-11.87-9.35-.85-.54-2.13-.59-2.17-1.73-.07-1.71.95-3.01,1.51-4.46,3.31-8.51,6.56-16.35,7.76-25.71l-.92-9.17c.51,1.56.97,3.26,1.23,4.89.39,2.52.34,4.7.37,7.16.06,4.12.47,8.46.76,12.56.26,3.8.03,4.52-1.28,8.12-1,2.75-2.39,5.4-3.36,8.17l.12,1.18,10.27,8.8c1.4.91,3.85,1.07,5.56,1.28,9.85,1.19,21.74,1.97,31.21,4.76,2.41.71,2.88,1.4,4.46,3.11,1.89,2.05,4.48,4.4,6.25,6.68,1.35,1.75,3.89,5.82,4.32,7.92.15.72-.06.89-.46.1-1.01-2.02-2.68-5.36-4.21-6.95-1.72-1.79-5.1-3.75-7.48-4.39-6.14-1.64-12.68-2.15-18.94-3-4.27-.58-8.45-1.79-12.8-1.41-.45.41,1.82,2.29,2.15,2.7.91,1.12,2.45,3.73,3.4,4.51,1.91,1.56,6.94,2.81,9.44,4.42,1.46.94,4.96,4.16,6.03,5.65,1.25,1.76,2.49,5.37,4.83,5.93.39.09.95-.22,1.56-.13s3.85,1.33,4.49,1.66c.46.24,1.02.63,1.18,1.15-2.07-.43-4.17-1.6-6.29-1.8-9.78-.91-18.5,2.19-25.82,8.27-.41.34-.53,1.26-1.16,1.08-.68-.52-.51-.57-.12-1.2,1.42-2.29,4.96-3.35,6.77-5.27-2.93,0-5.86,2.57-8.53,3.17-.55.12-1.03.17-1.55-.11-1.02-.53-4.72-9.14-5.68-10.86-.49-.87-1.11-1.83-1.66-2.67-.3-.45,0-.88-.92-.68.64,1.81.1,3.83.37,5.56.35,2.27,2.01,5.39,2.16,7.56.24,3.58-2.61,8.69.04,11.82.61.72,1.9,1.5,2.84,1.16,5.94-3.46,11.88-7.33,18.01-10.43,2.64-1.34,9.37-4.66,12.01-4.89,3.45-.31,8.76,1.89,12.06,3.06,3.96,1.41,7.26,2.16,9.35,6.29-.57.5-3.56-2.73-4.19-3.18-.92-.65-2.89-1.6-3.98-1.78-7.77-1.27-14.32,1.6-20.58,5.88-3.05,2.08-5.93,4.49-7.75,7.72l-.9-.19c-.2-1.65,1.75-3.63,3.24-4.14l-.18-.72-.66.06c-6.43,3.85-12.73,7.82-18.97,11.96-1.11.74-2,1.21-3.11,2-.74.53-6.45,4.37-5.49,5.4,2.53-1.04,5.03-2.24,7.44-3.53,4.12-2.21,8.17-4.55,12.31-6.76,5.69-3.05,13.56-8.93,20.28-6.53.5.18.83.65,1.33.83,1.42.5,7.05,1,7.75,1.96.24.32-.29.72-.36.72-2.53,0-5.88-.28-8.27,0ZM113.53,397.18c-.29-.26-1.48-.74-1.9-.8l-8.08-.37c1.21,1.32,3.64,1.67,5.28,2.45,1.26.59,2.27,1.46,3.38,2.01.8.39,3.38,1.55,4.1,1.66.96.14.53-.84.27-1.35-.17-.33-2.7-3.28-3.06-3.6Z"/>
  <path class="cls-1" d="M301.4,537c.46.1.91-.16,1.04-.59.26-.86-1.58-5.62-1.95-6.96-2.3-8.42-3.07-14.34.83-22.55,1.41-1.9,2.14-4.26,3.57-6.13.33-.43.75-.8,1.18-.45-1.33,1.47-1.79,3.31-2.13,5.24-1.31,7.58-.66,10.95,1.23,18.13.44,1.67.74,4.02,1.26,5.51.12.33.66.19.72.48.32,1.67.48,3.58.79,5.27s.98,2.76.64,4.75c-.16.95-3.27,4.08-4.17,4.98s-1.74,2.49-3.2,2.75c-.45.08-.76-.08-.54-.54.62-1.32,2.66-2,2.88-3.24.18-1.03-.02-3.97-.54-4.85-.66-1.13-.84.03-1.16.35-.63.64-3.12,3.13-3.87,3.13-1.32,0-1.46-1.84-1.91-2.66-.62-1.13-2.04-2.98-2.43-4.05s-.54-2.79-.89-3.97l-1.02.05-4.35,7.34c-1.56,1.32-3.64.84-5.43.35-3.9-1.07-7.85-3.76-12.03-4.15-2.13-.2-8.46-.37-10.43.02-1.65.32-3.24,1.37-4.87,1.78l1.52-1.7c5.06-2.04,11.46-4.46,17.03-5.1,5.62-.65,10.19,3.89,14.73,3.88,1.94,0,1.9-1.31,2.7-2.58.17-.27.62-.22.82-.69.25-.59.36-1.19.18-1.82l-2.81-8.54c-1.77,1.07-2.15,3.42-3.59,4.86-2.28,2.29-5.82,1.84-8.72,1.16-.35-.08-.67-.48-1.2-.6-2.93-.64-7.5-1.87-10.33-1.38-.98.17-5.08,2.27-5.3,2.08-.15-.74.36-.84.83-1.15,3.32-2.19,6.74-7.38,10.21-9.65.64-.42,1.75-.65,2.39-1.07.25-.16.79-1.1,1.3-1.3-.51-2.56-.9-5.25-1.51-7.78-.31-1.27-.98-2.54-1.26-3.77-.18-.77.22-2.34-.66-2.6-.51-.15-4.72,1.27-5.54,1.59-2.96,1.18-4.02,3.52-5.21,6.3-2.75,6.38-3.49,12.63-5.31,19.15-.53,1.89-1.65,5-3.5,5.85-1.08.49-4.88,1.82-5.97,1.94s-3.28.18-4.29.04c-2.03-.3.15-2.13.62-2.99,2.13-3.91,2.16-10.02,2.44-14.47.05-.78.5-1.51.37-2.33-.62-.15-.72.24-1.08.54-1.3,1.08-3.86,4.76-4.66,6.2-.46.83-.55,2.4-1.07,3.18-.27.41-4.54,3.65-4.88,3.65-1.49-.59-2.41-2.1-3.6-3.13-5.23-4.5-8.6-7.34-14.96-10.23-1.68-.77-4.71-2.19-6.62-2.37-.51-.05-1.12-.22-.54-.71,3.26-.44,6.11.87,9.2,1.41s6.33.85,9.61,1.18l10.86,8.56,3.98-6.46c1-1.25,2.45-2.56,3.4-3.8,2.16-2.82,1.94-8.07,2.55-11.48.66-3.68,1.8-7.29,2.13-11-.63-.64-3.96,2.22-4.48,2.89-2.66,3.45-5.23,7.41-6.57,11.77-1.21,3.93-.13,7.43-5.34,7.97-2.45.25-7.34.61-9.69.4-.47-.04-2.61-.4-2.64-.89.51-2,1.43-3.89,2.02-5.85.95-3.12,1.66-7.71,2.78-10.53.3-.75,1.95-3.23,2.6-3.51.35-.15,1.03-.27,1.45-.35,4.95-.95,9.66-.33,14.32-2.23l5.69-.43c.69-.22,1.94-3.94,2.59-4.97,2.87-4.52,8.96-9.06,13.83-11.35,2.33-1.1,4.96-1.83,7.55-1.62.53.45.03.67-.54.71-1.3.09-5.95,1.09-6.99,1.65-2.43,1.32-6.09,6.23-7.51,8.67-2.84,4.87-4.35,15.12-4.73,20.8-.05.68-.44,1.27-.37,1.97,2.05.21,3.05-1.88,4.34-2.68,1.76-1.09,5.41-1.58,7.54-2.17s4.15-1.65,6.46-1.63c-.01-1.49.05-3,.02-4.49-.07-3.15-.73-6.04.9-9.15.23-.43.83-.67,1.06-1.1,1.03-1.97,1.84-5.28,3.27-7.16.15-.2,1.53-1.17,1.6-1.1-.15,1.02-.95,1.35-1.35,2.43-1.55,4.21-.78,6.94-.44,11.05.52,6.36,1.59,10.53,2.77,16.65.31,1.61.63,3.24.77,4.87l-4.29,4.01c-3.62,1.34-6.24,4.26-8.98,6.85.88,1.19,1.25-.02,2.03-.48,2.45-1.45,2.26-.86,4.62-.77,3.4.14,6.12.45,9.37.7,1.09.09,1.3.54,2.62.13,5.14-1.62,1.42-8.4.52-11.9-1.2-4.73-2.25-9.65-3.26-14.36-1.83-8.53,1.67-16.07,5.75-23.25,2.31-4.08,5.35-7.78,9.29-10.31.12.62-.32.9-.71,1.27-4.92,4.72-8,7.77-9.63,14.83-2.03,8.83,1.21,17.8,3.33,26.34,3.15,11.3,6.11,22.77,10.97,33.45ZM238.09,492.04c-2.72-.26-4.55.16-5.83,2.63l-4.97,16.43c3.33.58,3.09-3.79,3.77-6.12,1.5-5.05,3.61-8.94,7.02-12.94Z"/>
  <path class="cls-1" d="M353.92,550.31c.13,1.03-.67,1.51-.99,2.42-.76,2.18-2.09,7.4-1.8,9.54.65,4.7,5.16,14.78,8.19,18.43,1.72,2.08,4.29,4.33,6.83,5.22.32,1.62-2.46-.08-3-.42-.85-.53-1.2-1.62-2.39-1.38-.43.44,3.33,7.13,3.77,8.27.57,1.44,1.32,3.32,1.29,4.86-.06,2.51-2.99,6.13-4.72,7.91-.23.24-.31.77-.41.83-.32.21-1.17.3-1.02-.48.13-.72.79-1.01,1.11-1.77,1.32-3.21-2.31-8.89-3.69-11.82-2.04-4.32-4.23-8.54-6.23-12.84-2.09-4.5-5.1-10.14-3.68-15.19l2.78-6.75c-.63-.16-.72.26-1.07.54-5.81,4.62-10.96,6.69-18.43,4.76-5.94-1.54-9.81-3.4-16.26-4.25-3.2-.42-8.9-1.43-11.81-.24-2.35.96-5.28,3.8-7.7,5.25-1.19.71-2.92.96-3.92,2.22l1.66,7.17c2.14-.19,3.93-1.62,6.27-1.79,4.85-.34,6.06,3.15,8.46,6.23,4.38,5.61,9.18,10.8,13.46,16.47,1.6,2.13,5.05,8.14,6.85,9.34.45.3.69.45,1.27.34.64-.65-2.34-5.98-2.94-6.95-2.85-4.59-5.68-9.45-8.77-13.89-1.47-2.11-4.85-4.86-4.4-7.67.14-.92.84-1.92,1.12-2.85.66-2.24.95-5.59,2.77-7.12-.02,2.16.26,5.98,1.29,7.89.55,1.03,1.87,2.18,2.49,3.26l.53-1.44c.47,1.07.94,2.72,1.46,3.7,2,3.78,5.46,8.65,8.73,11.66.51.47,3.46,2.24,3.49,2.44.01.52.19,1.12-.54.9-.51-.15-2.24-1.68-2.8-2.16-.28-.24-.69-1.26-1.34-.89.42,1.4,1.6,2.61,2.23,3.88.49.98,2.1,4.44,2.29,5.29.15.65-.32,1.5.07,2.29-.06.34-1.52,2.02-1.88,2.4-.8.85-3.28,3.42-4.05,3.94-4.08,2.78-6.57-.96-8.89-3.99-5.29-6.91-10.5-14.33-16.32-21.07-.35-.4-.36-1-1.15-.83l4.05,16.63c2.34,5.17,4.39,10.49,4.6,16.23-.07.4-3.32,1.68-3.96,1.86-5.26,1.49-10.54,1.44-15.24,4.54-1.3.85-2.21,2.44-3.83,2.46-.05-1.43.84-2.15,1.38-3.11,1.25-2.23,1.44-1.88,2.95-3.53.43-.48.52-1.18.9-1.62.28-.32,2.28-2.03,2.7-2.33,3.18-2.28,8.97-2.08,12.41-4.14,1.23-1.89-2.38-8.17-3.05-10.28-1.26-3.96-2.15-8.79-2.97-12.85-.3-1.49-1.63-5.28-2.26-6.73s-1.29-2.26-2.86-2.9c-.52-.21-3.48-1.02-3.45-.13,1.48,5.07,3.51,9.77,6.18,14.3.51.87,1.61,1.47,1.38,2.75-.76.16-.81-.39-1.15-.82-.86-1.09-1.26-2.67-2.44-3.49-.3,3.47,1.71,6.69-1.07,9.54-1.27,1.31-3.56,2.89-5.06,3.93-1.28.88-3.65,1.36-3.58,3.43,1.32.04,1.94-1.47,3.13-1.73,1.63-.36,4.25-.18,6.02-.46,1.86-.3,2.92-.44,4.16-1.95.53-.64,1.3-2.51,1.63-2.69.68-.37.55.6.55.9-.02,2.36-1.26,6.89-3.07,8.44-2.26,1.93-3.8,1.62-6.48,1.8-3.53.23-7.19,0-10.79.36-1.2.12-2.17.87-3.41.72,1.67-2.19,3.32-4.46,5.39-6.3,2.18-1.94,4.91-3.19,6.78-5.45.03-1.87.2-3.84.07-5.7-.54-8.01-5.64-15.64-6.11-24.48-.11-2.09,2.21-6.24,3.43-8.04.73-1.08,1.88-1.8,2.32-2.9l.72.18c-.89,1.74-1.55,2.99-1.44,5.04.03.52-.13.64.55.54.92-.13,4.3-2.09,5.2-2.72,1.83-1.29,3.68-2.79,5.51-4.13.24-.18.25-.56.34-.61.12-.07,2.4-.77,2.63-.81,3.45-.51,7.27-.07,10.79-.36,1.63-.14,3.73-1.02,5.33-.97s4.47.43,6.07.7c4.6.75,9.53,3.46,14.13,2.77,1.44-.21,6.24-2.39,7.51-3.28.76-.53,4.61-4.93,5.27-4.26Z"/>
  <path class="cls-1" d="M210.75,330.73c.11-.91.75-2.64,1.12-3.55.89-2.17,2.4-3.84,4.63-4.72,3.49-1.38,7.97-2.01,11.52-3.23,3.25-1.11,7.34-3.74,9.71-6.11.89-.89,1.51-1.97,2.51-2.71-.79,2.71-2.94,4.84-4.67,7.02-2.09,2.64-4.52,5.51-6.53,8.21-1.03,1.38-3.74,4.64-3.91,6.19-.12,1.07.94,2.89,1.5,3.88,1.37,2.43,3.33,4.81,4.69,7.18,3.07,5.32,4.12,11.97,2.73,17.98-.21.89-3.05,5.05-2.81,5.29l5.66-2.43c5.31-1.76,10.63-3.26,16.13-4.01,1.45-.2,3.01-.01,4.46-.4-.18-3.5-1.52-7.79-3.43-10.76-2.81-4.35-8.16-6.73-11.49-10.81l-2.69-1.8c-.27.29,2.4,4.93,2.7,5.75.42,1.15.6,2.57.92,3.78-.98,3.7-.83,7.83-1.84,11.49-.08.29-1.1,3.52-1.78,2.72.79-3.14,1.54-6.54,1-9.81-.3-1.82-2.2-5.57-3.21-7.22-1.96-3.17-4.26-4.36-5.44-8.23-.12-.39-.53-.68-.61-1.18-.55-3.11.9-6.43,2.45-9.05.15-.26,1.38-2.47,1.86-1.91.08,1.27-.83,2.24-1.44,3.23.75.02,1.52-.08,2.27.07,4.84,1.02,11.08,9.62,15.75,12.67.44.28.83.66,1.41.57-.5-1.66-.97-3.42-1.62-5.03-1.62-4.04-4.33-9.06-6.85-12.57-.72-1.01-1.92-1.69-2.47-2.92-.73-1.63-.48-3.68-1.12-5.39.26-1.08,1.72-1.31,2.71-1.6,2.8-.8,5.61-.75,8.36-1.35,2.9-.64,6.97-2.87,9.41-4.63.29-.21,1.85-1.38,1.94-1.46.23-.22.81-2.81,1.51-2.08-.41.91-.68,2.45-1.28,3.21-.45.57-1.48,1.86-1.95,2.37-.6.66-1.58.75-2.18,1.41-1.2,1.31-2.64,3.72-3.94,5.06-.82.84-2.29,1.67-3.13,2.62l-7.67,1.51c-.02.28-.01.56.06.84.17.63,1.42,2.69,1.86,3.37,6.23,9.76,9.81,20.91,10.68,32.65.11,1.47-.09,3.03,0,4.5l7.7-.75c1.23-.42,5.62-.76,6.14-1.78.11-.21.9-2.55.91-2.71.16-2.11-3.65-7.24-4.99-9.03-3.57-4.75-7.37-8.43-10.55-13.9-1.68-2.89-4.1-6.33-2.72-9.69.86-2.09,3.23-6.66,4.64-8.31.39-.46.75-.62,1.21-.95.41.38.16,1.33.01,1.81-.55,1.8-2.02,3.22-2.55,4.99,1.05,3.45,3.03,6.73,5.07,9.71,4.31,6.31,13.1,13.45,11.66,21.78-.12.68-1,2.05-1.27,3.04-.25.93-.21,1.97-.52,2.9,1.77-.54,2.43-2.26,3.44-3.57.11-.15.71-1.03.87-.56-.51,1.14-1.65,3.14-2.5,3.97-1.05,1.02-3.44,1.91-4.81,2.68-2.92,1.63-4.7,2.21-7.7,3.51-.82.36-1.75,1.58-2.89,2.15-4.25,2.11-10.8,1.76-15.72,3.35-8.27,2.67-14.63,4.02-19.42,11.88-.44.72-.23,2.02-1.28,1.77-.05-.77.08-1.58,0-2.34-.75-7.44.37-12.78-3.18-19.84-3.42-6.82-8.48-12.07-13.98-17.12-.12-.88-1.33-1.75-1.5-2.3-.58-1.93,1.07-9.22,3-10.19,1.23-.62-.13,2.07-.17,2.35-.33,2.12.39,4.1,2.17,5.37.34.24,1.42.83,1.42.02,0-2.1-.23-4.84,0-6.83ZM226.22,326.23c-2.98,1.24-10.77,2.39-12.54,4.91-1.6,2.28-2.48,6.12-1.28,8.73,5.91,6.71,11.74,14.21,12.38,23.58.14,2.01-.33,4.15-.37,6.12-.03,1.14.03,2.29,0,3.42.41-.12.8-.57,1.07-.9,2.1-2.55,4.36-5.93,5.83-8.92,1.32-2.69,2.35-4.46,1.18-7.44-1.96-5-5.96-10.01-8.76-14.63-.37-.61-.9-1.39-1.13-1.81-.37-.64-.62-1.49-1.02-2.15.72-1.55.75-3.34,1.47-4.89.46-1,3.96-5.18,3.15-6.02Z"/>
  <path class="cls-1" d="M387.02,495.28l1.18,7.28c2.19,8.61,6.13,13.17,13.38,17.92,3.9,2.55,8.92,3.68,13.43,5.27.82.29,3.26,1.13,2.41,2.26l-8.28-3.59.95,1.21c6.09,3.01,12.13,6.21,18.31,9.03,1.08.49,2.38.69,3.49,1.19,1.87.84,4.57,2.72,6.41,3.31.18.06.59.1.53-.18-2.82-2.61-6.5-4.07-9.68-6.14-4.53-2.95-15.67-10.29-18.18-14.56-.69-1.17-1.05-3.32-1.73-4.74-1.52-3.17-3.23-6.21-4.54-9.49s-2.02-4.97-1.84-8.59c.03-.7-.04-.56.72-.54.2,1.38.19,3.08.45,4.41.54,2.83,3.38,7.6,4.94,10.17.32.53,2.53,3.74,2.76,3.78.92.17,2.09-.18,3.12.05.64.15,1.02.72,1.59.92,4.85,1.73,8.84,2.17,13.93,1.88,3.31-.19,5.11,0,6.95-3.12.22-.37-.06-.64.79-.47-.35,1.96.03,7.01-1.24,8.29-.33.33-2.19,1.63-2.6,1.72l-8.74.61c1.71,1.84,4,3.01,6.1,4.33,4.45,2.79,9.34,5.39,13.33,8.97.86.77,2.02,1.95,2.34,3.05.13.44.89,3.94.89,4.15v6.29c-.57.11-.77-.13-1.01-.61-.63-1.28-.47-3.12-1.2-4.56-.44-.86-2.87-3.2-3.75-3.45-.68-.2-.45.11-.55.49-.41,1.61-.47,3.48-1.99,4.47-2.56-.15-4.34-1.57-6.61-2.46-.11,1.64.88,3.1,1.34,4.59.78,2.51,1.85,5.55,1.51,8.15-.07.57-.29,1.1-.54,1.61-.23.46-1.91,2.36-2.32,2.71-2.74,2.31-6.41,4-9.31,6.16-5.05,3.77-10.19,8.1-13.85,13.13l-2.01,4.28c.08-1.23-.12-2.57,0-3.78.41-4.26,1.64-7.79,4.32-11.14,2.89-3.6,6.93-6.47,10.53-9.18,2.85-2.14,6.41-4.18,8.79-6.57.44-.44.48-1.28,1.48-1.39.39-3.18-.39-6.26-1.46-9.22l-6.4-2.59c-.17,1.78.6,3.44.73,5.2.11,1.51.07,5.4-.56,6.67-.09.18-2.28,3.01-2.43,3.14-.38.34-1.29.51-1.83.87-5.78,3.89-12.25,7.85-16.44,13.5-.66.89-.74,2.71-1.78,3.35-.22-1.79.83-3.33,1.35-4.94.78-2.41,1.45-4.93,2.42-7.29.7-1.71,1.44-2.43,2.06-4.41.23-.73.89-1.33.58-2.16-.99-1.48-1.94-3.15-3.03-4.55-4.9-6.31-13.9-11.98-17.57-18.76-1.19-2.19-1.79-7-1.66-9.51.08-1.48.6-3.33.73-4.85l.71.18c-.88,1.91-.27,4.08.66,5.83,3.11,5.86,10.28,12.35,16.36,14.93l7.81,2.98c-.47.67-.82.59-1.54.47-2.53-.43-5.58-2.64-8.17-3.16,1.22,1.46,2.72,2.67,3.95,4.14.83.99,4.8,6.1,4.98,6.9.21.98-.51,3-.84,4.07-.59,1.9-1.59,3.49-1.98,5.39,1.71-.23,1.28-.88,1.99-1.78,1.97-2.52,5.59-4.59,8.18-6.5.56-.41,1.57-1.15,2.05-1.7.73-.84,1.9-2.52,2.09-3.59.17-.92.26-4.09.02-4.89-.29-.98-3.37-1.94-4.39-2.45-5.62-2.81-11.56-5.62-16.74-9.16-4.42-3.01-9.23-6.27-11.37-11.3-1.39-3.28-1.44-6.28-2.43-9.44-.31-1-2.07-4.38-2.07-5.13v-7.37Z"/>
  <path class="cls-1" d="M160.99,459.43l1.19,1.68c-.51.08-.97-.05-1.46-.16-1.65-.37-4.72-3.06-6.81-3.98-4.04-1.78-12.06,1.02-15.29,3.78-2.43,2.08-4.42,5.46-6.49,7.93l-8.81-4.14c-1.06-.54-1.86-1.67-3.22-1.63.29,1.2,1.56,1.81,2.11,2.74,1.57,2.65,1.4,4.97,1.88,7.83s1.02,4.8,3.94,6.13c2.22,1.01,3.08-.46,4.55-1.94l7.9-6.48c2.44-1.26,5.26-2.46,7.92-3.16,3.73-.97,9.31-.81,13.24-.44.8.08,2.44.31,2.33,1.44-3.61-1.27-5.64.45-8.63,1.62-3.43,1.34-6.66,2.14-9.69,4.34-.57.41-4.44,3.61-4.62,3.85-2.86,4.06-7.36,7.25-10.32,11.42-.45.63-.89,2.2-1.46,2.5-.61.32-.63-.46-.53-.89.43-1.9,2.48-3.09,2.87-4.32.19-.59-1.45.35-1.64.53-1.66,1.58-3.74,3.3-5.57,4.83-2.49,2.09-5.52,5.59-9.08,4.82-1.12-.1-6.08-2.93-6.54-2.8-.56.15-.44.66-.39,1.08.15,1.32,1.36,6.44,2.36,7.04.87.52,3.14-1.97,4.06-2.44,3.2-1.64,7.57-2.83,10.94-4.53,5.09-2.57,9.18-6.55,13.67-9.79,3.47-2.5,5.87-1.83,9.65-2.14,4.63-.38,7.03-1.08,11.77.46.63.2,1.2.06,1,.97-1.32.09-2.49-.6-3.77-.72-4.1-.39-7.01.41-10.51,2.45-5.71,3.32-12.32,12.04-15.12,17.97-.46.98-.77,2.29-1.18,3.32-.65.03-.76.17-.73-.54.14-2.75,1.89-3.8,2.53-5.75.42-1.29-1.46,1.08-1.54,1.15-2.16,2.03-5.3,4.6-7.57,6.21-1.92,1.37-3.72,2.29-6.25,2.81-4.97,1.01-9.37-1.05-14.09-2.12-.18-.51-.6-1.18.15-1.39s3.55.94,4.7,1.04c1.75.16,3.94-.27,5.63-.78,5.26-1.6,11.03-8.19,14.66-12.31.36-.4.86-.59.72-1.26-1.56,1.33-3.64,1.59-5.39,2.34-4.67,2-8.04,3.41-12.14,6.28-1.15.8-5.77,3.19-6.94,2.36-1.75-1.24-2.45-6.92-2.96-8.91-2.13-8.19-5.05-16.64-9.32-23.78-.86-1.44-2.5-3.14-3.8-4.19-.56-.45-2.57-.97-1.36-1.8.88.79,2.11.71,3.15,1.16,1.9.83,8.7,5.42,9.86,6.86s1.45,3.01,2.2,4.45c.47.91,1.23,1.67,1.69,2.63,1.4,2.89,2.05,6.69,3.23,9.72,2.19,1.54,4.91,1.47,7.13,0,.91-.6,3.35-2.79,4.32-3.66.35-.32.77-.32.6-1.01l-5.55-.39c-3.03-.55-4.73-1.25-5.78-4.29-.97-2.77-.02-3.83-.16-6.31s-1.31-10.86-2.72-12.74c-.78-1.04-2.64-1.01-2.69-2.52.26-.25,2.57,1.14,2.98,1.43.33.23.38.71.63.89,5.03,3.68,7.73,5.32,8.27,12.25.17,2.2-.5,6.02.43,7.84.1.2,1.33,1.91,1.43,1.98.2.13,2.65.69,3.25.9.31.11.53.38.82.52,2.06-1.62,4.17-3.2,6.19-4.87.32-.26.96-.37.82-.97-.16-.72-3.81-.94-4.77-1.35-6.4-2.77-4.67-8.26-5.69-13.73-.2-1.05-1.45-6.3-1.81-6.83s-1.34-.69-1.4-1.64c1.26-.15,2.86.26,3.94.92.43.26.7.76,1.12,1.03,2.38,1.55,4.69,3.12,7.36,4.17,1.07,0,3.3-3.57,4.13-4.5,7.46-8.36,22.18-7.19,30.46-.42Z"/>
  <path class="cls-1" d="M173.04,336.93s0-.01,0-.02c0,0,0,0,0,0,.15-.68.71-1.46.92-2.32.29-1.21.42-2.79.44-4.05l-1.49,4.08-1.02.59c-.87-2.92-2.97-5.58-4.7-8.08-.25-.36-.24-.86-.46-1.16-1.02-1.38-3.36-3.1-4.9-3.9-4.89-2.51-15.88-4.88-21.45-5.53-1.66-.19-3.5.08-5.19-.03-.74-.67,2.58-6.43,3.06-7.55,1.42-3.33,4.34-10.49,3.77-13.84-.12-.73-.84-1.16-1.01-1.87-.6-2.64-.35-5.82.04-8.46.09-.63.5-.82-.3-1.36-.65-.12-1.22.96-1.44,1.43-.81,1.75-.89,3.94-1.42,5.77-1.27,4.4-3.11,9.95-4.96,14.11-.71,1.61-4.86,8.6-4.55,9.73.25.94,1.75,1.13,2.45,1.54,3.37,1.96,3.35,1.4,6.98,1.7,6,.49,16.57,2.05,21.82,4.75.41.21,1,.32,1.09.89-3.18.76-6.63.2-9.91.35-3.81.17-7.68.88-11.49,1.1-5.27.31-10.55-.19-15.8.38-1.21.13-2.56.57-3.78.71l1.83,10.71c.28.39,5,1.06,5.88,1.14,9.21.85,20.75-.22,28.59,5.23.69.48,1.11,1.46,1.99,1.6.53-.94-.84-2.25-1.42-2.9-2.21-2.45-3.85-3.67-6.49-5.73-.7-.55-1.26-1.44-1.99-1.96-2.78-1.98-6.77-2.01-10.06-2-1.08-.89,4.52-.68,4.86-.71,3.35-.29,6.72-.87,10.06-1.09,4.16.57,9.3-1.03,13.31-.35,1.4.24,3.23,2.04,3.93,3.27,1.92,3.39,1.42,3.88-.71,6.77-1.35,1.83-3.54,3.85-5.06,5.54-2.98,3.33-5.51,5.01-8.87,7.8-3.38,2.82-10.18,7.7-11.79,11.67-1.14,2.82-.41,4.59-.28,7.5l1.73,4.92c-1.55-.08-1.87-1.84-2.52-2.7-5.15-6.85-11.37-7.75-18.79-11.06-3.49-1.56-7.22-3.12-10.67-4.8-1.49-.72-7.88-3.92-8.47-4.84-.34-.55-1.02-3.21-1.46-3.21-.38,0-.56.78-.52,1.23.23,2.51,1.58,5.14,1.86,7.69l3.91,2.75c3.87,1.41,7.72,4.19,11.5,5.77.47.2.93.24,1.43.19,0,.55.2.83-.49.67-1.66-.38-3.5-1.21-5.19-1.65-1.46-.39-7.94-2.14-8.84-1.86-.44.14-.68.57-.59,1.04.65,0,1.3-.05,1.95.03,4.48.6,8.5,2.41,12.71,3.12,1.19.2,3.21-.02,4.06.24,5.77,1.77,12.3,5.15,17.73,7.82.93.31,3.82,3.65,4.38,3.53,1.11-.23-.01-1.63-.1-2.05-.67-3.12-1.31-6.18.09-9.11,2.13-4.46,7.14-7.36,10.73-10.42.79-.68,4.64-4.36,5.1-5.04.91-1.38,1.71-3.83,2.56-5.35.75-1.33,5.77-9.96,6.28-10.28.02-.02.06-.02.08-.03,0-.01.02-.02.03-.03.02-.04.04-.08.07-.11.02-.06.04-.11.07-.16.08-.1.16-.2.23-.3.04-.04.09-.07.13-.1,0,0,0,0,0-.02.03-.07.06-.14.1-.21.06-.16.14-.31.21-.47.05-.21.1-.43.18-.64Z"/>
  <path class="cls-1" d="M338.45,429.82c-.16,4.36,2.73,8.13,5.94,10.79,5.74,4.76,16.97,8.01,24.19,10.34,1.14.37,2.49.77,3.69.81.08.89-.78,1.55.18,2.15,3.06-2,6.65.61,9.61,1.55,3.4,1.07,6.94,1.75,10.35,2.77.19-1.04-.26-.58-.8-.8-4.65-1.99-12.35-5.01-17.09-6.31-.62-.17-1.31.05-1.91-.25-1.04-.52-2.72-5.81-3.21-7.22-.46-1.3-2.31-4.32.31-4.09.42.91,1.16,2.34,1.82,3.04,2.21,2.33,10.13,4.72,13.48,5.94,2.64.96,6.55,1.76,8.95,3.28,1.73,1.1,4.66,5.05,5.25,6.98.69,2.23,1.22,6.66,1.12,8.98-.04,1.03-.52,1.99-.38,3.05h-1.08c-.07-2.09.62-3.63-1.54-4.75s-5.64-1.21-7.91-1.8c-.91-.24-6.37-2.42-6.73-2.08.19,1.73,1.94,2.26,3.05,3.24,1.57,1.39,4.07,3.29,5.38,4.7.5.54,2.58,3.63,2.9,4.3.6,1.28-.15.91-.4,1.19-4.16,4.67-11.44,10.4-13.35,16.35-.52,1.62-1.38,4.75-1.54,6.37-.09.88.07,1.82,0,2.7-.88-.6-1.25-2.85-1.35-3.88s.28-2.45.29-3.48c.05-4.74-.14-8.51,2.15-12.89.2-.38,1.15-.26.69-1.67-3.3-.52-6.6-1.3-9.9-1.79s-8.19.23-10.14-3.17c-1.08-1.88-2.67-6.57-3.42-8.81-.42-1.26-1.53-4.41-1.68-5.51-.23-1.55-.13-3.58-.37-5.21,1.59-.19,3.08.75,4.44,1.49,2.23,1.22,4.41,2.88,6.7,4.09,3.21,1.69,6.88,2.51,9.98,4.05,1.12.55,3.21,2.43,3.62,3.57s.21,2.83.5,3.82c.15.5.8.69.96,1.2.43,1.44.39,3.63.43,5.15,1.76-.15,2.34-2.12,3.34-3.13.24-.24.69-.33.98-.63.99-1.03,3.48-2.9,3.25-4.3-1.44-1.18-2.77-2.55-4.16-3.8-.69-.62-1.89-1.18-2.52-1.79-1.14-1.1-2.09-3.09-3.79-3.77-5.83-2.33-12.14-3.86-18.07-6.04-4.99-1.83-10.86-3.86-14.29-8.01-2.52-3.05-8.13-11.01-8.61-14.77-.09-.68-.42-2.28.69-1.95ZM360.65,463.38c-.66-.49-2.29-1.8-2.94-1.92-.9-.16-.57.97-.46,1.54.27,1.39,1.94,4.03,2.96,4.94,1.65,1.47,3.59,2.24,5.8,2.48,1.07.11,2.21-.1,3.21.03,2.57.33,5.12,1.04,7.73,1.08-.1-.62-.71-.64-1.16-.82-5.3-2.11-10.59-3.99-15.14-7.34Z"/>
  <path class="cls-1" d="M429.47,314.36l3.47-2.46c.78-.18,2.15-1.11,2.81-1.12.39,0,2.48.69,3.06.89,1.46.49,2.87,1.29,4.32,1.8.93.33,1.51-.19,1.74,1.13l-5.75,11.39c-2.26,3.47-4.23,7.12-6.57,10.7-.29.44-.66.83-.57,1.41.62.1,1.05-.13,1.57-.41,1.96-1.06,5.58-5.4,7.24-7.15,3.7-3.9,6.58-7.7,10.72-11.15.46-.38.69-1.34,1.81-1.03,2.13.59,7.41,10.72,8.94,13.03,2.4,3.65,6.68,8.94,10.26,11.32.47.31.98.4.83,1.15-.62.09-1.15-.09-1.73-.25-2.07-.58-3.72-2-5.44-3.2-2.28-1.59-4.31-3.03-6.3-4.84-.66-.6-2.04-.96-2.7-1.62-.44-.44-1.05-1.34-1.6-1.98-2.04-2.34-3.44-5.28-5.25-7.35-1.09-1.24-1.31-1-2.52-.01-1.27,1.04-4.73,4.78-5.75,6.12-.35.47-.78.99-.72,1.62,2.23-.03,3.94-1,6.27-.69,1.31.17,2.33,1.12,3.33,1.34.64.14,1.33.03,2,.15,1.92.36,2.02,1.72,3.14,2.97,2.08,2.31,2.79,3.51,4.52,5.91,1.64,2.27,2.45,2.58,4.4,4.05.21.16.38,1.23.65,1.69.24.41,1.88,2.33,1.59,2.55-.99-.15-1.72.8-2.68.73-.63-.05-1.56-.72-2.35-.92-4.23-1.08-6.01-1.6-9.84-3.83-1.33-.77-2.71-1.57-3.85-2.64-.98-.53-2.16.31-2.98.91-3.84,2.79-7.2,6.83-11.29,9.35-1.59.98-3.84,1.89-5.69,1.97-1.97.09-4.63-.24-6.44-.16-.76.03-1.73.67-2.5.61-.66-.05-3.79-1.12-4.65-1.43-2.09-.76-4.02-1.85-6.02-2.8-.07-.67.75-.33,1.1-.2,1.8.7,5.82,2.84,7.44,3.01.83.09,5.31-.83,6.21-1.19,1.37-.55,5.53-3.23,6.48-4.31,2.39-2.7,4.27-6.4,6.64-9.18.72-.15.66.34.48.84-.49,1.35-3.09,3.95-4.05,5.3-.33.47-.91,1.44-.02,1.06.11-.05,1.67-1.35,1.87-1.54.24-.23.33-.7.63-.98,2.13-2.02,4.33-3.85,6.84-5.4,1.9,1.02,4.32,1.69,6.05,2.89.25.17.27.54.51.71,2.6,1.74,5.36,3.42,8.38,4.32.25-1.23-1.03-1.44-1.79-2.34-3.19-3.76-7.07-10.8-12.44-11.66-1.05-.17-2.14.34-2.85-.75-.31.95-1.39,1.18-2.07,1.81-1.13,1.04-1.94,2.38-3.17,3.38s-7.41,5.07-8.6,5.46c-.57.19-1.45-.3-2.32-.21-1.66.18-1.63.39-3.62.34-1.79-.04-3.54.32-5.22,0,.46-1.07,1.78-.93,2.72-1.42,7.58-3.93,12.84-14.47,16.28-21.85.4-.85,1.36-1.49,1.15-2.62-.44-.47-2.69,1.87-3.06,2.15-2.59,1.98-5.31,3.98-7.86,5.8-1.47,1.06-6.12,4.77-7.41,5.19-3.16,1.02-5.96-.03-9.12-.27l-2.41-1.01c.97-.43,2.02-.24,2.97-.45,3.66-.82,9.68-5.91,12.88-8.35,1.6-1.22,4.07-2.8,5.37-4.41,1.48-1.83,1.91-4.32,3.78-5.85,1.2.88-.03,1.24-.48,2.03-.19.33-.98,1.7-.77,1.92Z"/>
  <path class="cls-1" d="M230.08,443.22c2.9,3.26,4.75,10.31,5.76,14.57,1.58,6.66,2.31,19.98,10.15,22.22.61.17,2.86.01,2.53,1.06-.36,1.16-3,.23-3.77.18-3.47-.25-6.67-.79-9.88.93-5.87,3.14-10.79,10.36-14.35,15.86-1.67,2.58-3.04,5.74-4.73,8.15-.33.46-1.39.96-1.52,1.97-3.31.96-6.67.14-10,.07v-1.08c3.92.79,5.22-2.39,6.83-5.22l-.89-.56c-2.08.34-4.35.84-6.45.71-1.54-.1-1.72-.08-3.26.04-3.65.3-5.94-4.07-7.45-6.95-3.88-7.39-6.98-17.63-14.2-22.48-.46-.31-.99-.39-.83-1.15.81.23,1.73.28,2.53.53,7.12,2.16,11.95,6.48,17.64,10.78,2.87,2.17,5.8,4.3,8.77,6.32,1.6-2.5,1.81-5.49,3.37-8.16.89-1.53,1.84-1.9,2.49-2.73.3-.39.38-1.4.93-1.95.41-.42,4.85-2.68,5.55-2.9s1.37,0,2.17-.35c.56-.25.87-.89,1.43-1.09.38-.14,2.5-.52,2.79-.44.11.03.71.53.37.72-.33.43-1.21.31-1.82.7-2.17,1.39-6.99,8.58-8.09,10.97-1.42,3.09-1.54,6.83-3.81,9.52-.83.24-6.61-3.08-7.66-3.78-2.88-1.93-6-4.5-8.84-6.63-.83-.62-1.45-1.84-2.7-1.79.33,1.9,1.82,3.29,2.59,4.78,1.79,3.44,3.31,6.8,5.28,10.19.52.88.67,1.85,1.64,2.66,2.81,2.36,6.22,1.41,9.56.9.72-.36,3.36-5.51,4.15-6.66.2-.29.88-1.03,1.28-1.57,3.71-4.93,6.7-8.04,12.81-9.86,1.94-.58,4.3-.62,6.32-1.59,1.61-.77,0-1.04-.48-1.53-5.69-5.83-6.22-19-8.43-26.82-1.42-5.01-6.49-16.59-11-19.21-.82-.48-2.2-.85-3.14-1.19-.58-.21-.97.21-.8-.8,4.62.86,7.84,3.57,10.98,6.82,1.3,1.35,2.77,3.45,3.95,4.69.45.47,1.79.66,2.24,1.17Z"/>
  <path class="cls-1" d="M436.65,282.73l.02,1.05c-1.19.25-2.31-.39-3.42-.39-1.75,0-4.63,2.28-5.76,3.63-.3.36-.69.46-.54,1.08,1.41.32,2.88-.31,4.13-.37,3.01-.13,6.29.42,9.19,1.25.6.17,1.27.37,1.78.76.9.69,2.22,3.34,2.71,4.47,1.76,4.1,2.66,8.78,4.32,12.95.51,1.28,3.04,6.78,3.79,7.36,1.1.86,2.86.77,3.58,1.99-.97-.12-2.18-.34-3.08-.7-1.01-.41-3.72-1.8-4.28-2.55-.69-.93-1.26-2.6-1.98-3.41-1.06-1.19-7.5-4.38-9.17-4.86-5.81-1.65-8.62,2.55-12.33,5.76-1.77,1.53-3.53,3.19-5.31,4.69-1.54,1.29-4.99,4.15-6.83,4.33-2.14.21-4.64-.09-6.85-.01-1.7.06-5.02,1.4-5.57-1.07,1.2-.16,2.12.48,3.33.29,7.84-1.22,11.99-10.3,16.47-15.58.22-.26.34-.56.35-.9l.72.18c.11,1.35-1.77,2.88-2.46,4.01l-1.49,2.64c1.05-.65,1.78-1.71,2.7-2.52,2.77-2.42,5.58-4.86,9.37-5.38,2.75-.37,3.08.45,5.2,1.23,1.76.65,3.55,1.18,5.28,1.91,1.06.44,1.73,1.4,2.99,1.15.2-.74-.33-.7-.62-1-2.69-2.78-3.12-6.43-4.6-9.79-1.23-2.79-1.73-3.87-4.77-4.58-2.18-.51-3.63-.39-5.63-.47-.67-.02-1.56-.59-2.2-.57-1.14.04-3.24,2.83-4.12,3.64-2.99,2.77-6.07,5.52-9.01,8.26s-6.25,6.57-10.42,7.58c-1.17.28-3.33.25-4.6.77-.57.23-.64,1.04-1.39,1.51-1.33.84-4.12.46-4.06,2.34.21.74,3.41,2.18,4.29,2.56.49.21,2,.52,2.09.61.12.13.15.81.41,1.2,1.08,1.7,2.83,3.44,3.18,5.46.85,4.9.44,10.1,2.06,14.85,1.08,3.17,3.74,8.26,6.69,9.86,1.47.79,3.44,1.32,5,2.02,0,.55.21.83-.49.67-1.49-.34-2.98-1.37-4.55-1.57-3.91-2.22-6.75-5.42-9.51-8.83-.37-.46-.48-1.15-.9-1.62-.45-.49-1.14-.64-1.62-1.25-2.45-3.13-2.51-9.26-3.1-13.09-.45-2.94-1.73-5.17-3.58-7.5-1.39-1.76-5.22-3.26-7-4.94-.36-.34-.66-.5-.54-1.07.64.05,1.02-.69,1.6-.71.75-.03,2.28.63,3.25.71s2.59.12,3.44-.16,1.49-1.63,2.32-2.35c1.51-1.31,3.76-2.33,5.39-3.6,3.69-2.9,9.52-9.22,12-13.18.59-.94,2.83-5.72,3.12-5.87.66-.35.55.45.47.83-.38,1.66-1.97,3.63-2.45,5.11-.08.24.33.27.54.18.46-.2,2.11-2.16,2.7-2.71,2.27-2.13,6.75-6.71,9.52-7.73,2.94-1.09,7.23.88,10.25,1.48Z"/>
  <path class="cls-1" d="M440.39,436.53c1.12,1.54,2.97,2.86,4.38,4.07.33.28.41.8.63.98.79.64,5.83,3.65,6.32,3.28l.25-.69c4.39.5,8.87,2.09,13.26,1.11,1.07.8.5,1.35-.68,1.45-4.09.34-7.47-.68-11.31-1.67-.62-.16-1.14-.39-.4.4l9.35,2.88c3.38,1,7.9,1.55,10.92,3.41.27.16.16.65.48.72,2.32.52,5.4,1.49,7.32,3.05.75.61,2.69,3.25,3.06,4.14.98,2.38,1.11,5.6,1.94,8.07l-1.05.57c-.47-4.91-4.67-8.32-9.35-8.99l3.25,4.85c2.27,4.5,3.64,8.81.86,13.46-2.29,3.82-5.25,7.57-7.49,11.57-1.88,3.37-2.9,5.83-3.8,9.51-.2.81-.6,2.19-.62,2.93-.03,1.12.89,2.45.61,3.71-1.59-.47-1.1-2.85-1.62-3.61-.2-.29-.74-.18-1.01-.79-.41-.91-.83-3.38-.94-4.44-.76-7.26-.2-14.33-.57-21.55-.05-1.06-.05-2.6-1.16-2.98-5.08-1.33-11.77-2.66-16.03-5.84-1.54-1.15-3.08-4.3-4.22-5.92-1.79-2.55-4.22-4.03-3.6-7.73.51-.1.85.12,1.01.6.45,1.33.08,2.89,1.32,4.08.6.58,3.68,2.55,4.54,3.02.65.35,1.84.83,2.56,1.04,2.4.71,9.07,1.19,11.64.99,1.66-.13,2.87-.96,4.48-1.09-.69,2.76-4.12,2.1-6.3,2.16-1.74-.47-3.31-.29-5.1-.66-.7-.14-.45.06-.47.65.51,0,1.04-.05,1.54.08,2.29.59,5.02,1.14,7.19,1.81.43.13,2.31.97,2.45,1.22.77,1.62.43,3.7.76,5.28.1.49.54.89.64,1.52.73,4.75-.48,11.21,0,16.18.08.79.3,1.76.91,2.33.56-1.46.6-3.21,1.07-4.68,1.61-5.03,5.7-10.22,8.17-14.85,2.2-4.13,1.42-7.6-.84-11.52-.22-.38-.96-.96-.96-1.13,0-.27.91-.64.66-1.26-2.15-.58-4.25-1.42-6.39-2.07-5.65-1.71-16.23-3.65-20.49-7.39-.73-.64-4.61-4.61-4.94-5.31-.62-1.35-.91-3.21-2.18-4.29-.5.37-.59.63-.56,1.25.47,10.03-5.76,13.79-10.93,21.07-.73,1.03-1.18,2.29-1.84,3.19-3.63,5.02-6.82,7.93-7.7,14.6-.23,1.76-.32,4.45.33,6.1-1.39,1.35-1.01-1.38-1.1-2.13-1.2-9.6,4.68-17.12,8.81-25.05,1.1-2.11,2.01-4.8,3.14-6.93,1.5-2.8,4.4-5.31,5.6-8.42.41-1.07,1.07-3.46,1.18-4.58.24-2.52-.42-4.89-.36-7.38,1.42.03,1.43,1.97,1.89,2.96.41.87.92,1.9,1.48,2.67Z"/>
  <path class="cls-1" d="M303.56,235.96c-.15,1.32.48,2.64,1.01,3.84,1.7,3.84,4.76,7.51,6.1,11.53s.82,9.28,1.47,13.51c-1.7,1.96-3.81,9-5.89,9.96-1.31.61.41-1.78.47-2.05,1.11-4.96-4.09-11.14-6.78-14.95-2.44-3.46-5.1-7.38-7.59-10.82-.95-1.32-2.37-2.52-2.84-4.19-.69-.06-.31.73-.19,1.09.45,1.36,1.31,3.21,1.92,4.55,2.09,4.57,4.71,8.92,6.55,13.62.04.57-.64,2.08-.94,2.64-.56,1.05-1.67,2.72-2.37,3.75-.45.66-1.09,1.58-1.73,2.04-.07-.7.32-1.29.37-1.97.26-3.46-5.1-11.77-7.06-14.91-.19-.24-.57-.3-.75-.49-.25-.26-.32-.68-.64-.97-.79-.73-4.23-2.9-4.51-3.41-.35-.64.55-.61.89-.53,1.4.31,2.48,2.16,3.6,2.51.27.08.2-.27.18-.54-.06-.76-1.39-3.35-1.85-4.27-.98-1.99-3.82-6.07-3.13-8.25.35-1.1,3.01-3.03,3.99-3.85.89-.75,1.2-1.88,2.78-1.78l-.36,1.44c.88.05,1.31-.4,1.64-1.1,2.34.17,3.1,2.11,4.32,3.6,5.62,6.82,10.53,14.32,15.62,21.5.4.56,2.13,3.69,2.34,3.7.57.03.5-1.08.45-1.52-.54-5.33-.52-7.58-3.08-12.39-2-3.75-4.46-7.27-6.02-11.25l-.49-6.09c1.65-.34,3.18-1.16,4.85-1.45.66-.11,1.4.02,2.1-.06,6.43-.66,16.52-.75,22.29-3.62,1.4-.7,2.04-1.9,3.46-2.47.19,1.75-1.58,2.4-2.34,3.23-4.34,4.71-7.07,5.49-12.86,7.65-.74.28-1.45,1.1-2.32,1.28-2.06.42-4.97.2-7.09.46-1.88.24-3.71.9-5.6,1.05Z"/>
  <path class="cls-1" d="M377.66,523.33l-3.24,8.8c-.42,8.32,3.06,15.37,7.26,22.25.96,1.57,4.4,7.04,5.45,8.04.22.21,1.49,1.04,1.69.83-.49-1.68.65-3.49.71-4.89.04-.91-.44-1.93-.35-3.21.2-2.89,2.23-10,3.59-12.6.27-.51.3-1.04,1.09-.88-1.09,4.93-1.77,8.83.18,13.66,1.68,4.15,4.27,6.61,8.09,8.81.08,1.03-2.57-.2-2.85-.38-.51-.32-2.27-2.44-2.19-1.05.07,1.13,1.16,3.66,1.63,4.85,2,5.07,4.51,9.63,4.86,15.27-.02.41-3.24,7.08-3.59,7.49-.28.33-2.11,1.94-2.52,2.25-.49.37-.71.68-1.45.53.5-.78,1.28-1.79,1.34-2.75.15-2.24-4.08-7.04-5.45-9.14-.76-1.16-1.43-2.43-2.15-3.62-.37-.61-.11-1.17-1.29-1.39-.07,1.37.09,2.77,0,4.14-.11,1.84-.81,4.74-.75,6.46.08,2.13,1.02,4.86,1.12,6.85.02.45.02.85-.19,1.26s-5.42,3.18-6.23,3.48-1.71.25-2.34.47c-.34.12-.49.42-1.78.79-4.24,1.21-11.67,5.91-14.11,9.64-.48.74-.43,1.79-1.27,2.15-.09-2.6,1.1-5.04,2.63-7.08,1.8-2.4,4.04-3.93,5.91-5.95.4-.44.59-1.93,1.28-2.68,1.34-1.47,2.29-1.51,3.97-1.91.3-.07.19-.57.49-.71,1.57-.74,4.02-1.21,5.76-2.1.84-.43,3.61-2,3.71-2.76.57-4.15.39-8.76.34-12.98,0-.51.22-1.02.21-1.42-.07-2.17-8.63-13.15-10.33-16.11-.84-1.46-4.14-8.51-4.25-9.81-.08-.9.41-1.8.38-2.85-.03-1.11-.49-1.98-.4-3.24.46-6.31,1.02-11.97,3.95-17.64.27-.52.31-1.03,1.1-.88ZM396.37,576.2c-.85-3.07-2.37-5.95-3.51-8.89-.67-1.72-.76-3.72-2.06-5.13-.53,0-1.27,2.59-1.11,3.24.37,1.5,3.34,5.57,4.31,7.22.67,1.12.97,2.87,2.37,3.57Z"/>
  <path class="cls-1" d="M174.77,514.34c-.42.36-1.91-.04-2.61.07-.96.15-4.12,2.11-4.75,2.83-3.63,4.17-4.96,16.23-5.62,21.71-.41,3.27-1.59,6.28-1.77,9.56.94-.41,1.32-1.52,1.75-2.39,1.19-2.4,3.58-9.25,4.82-10.82.18-.23.73-.27.99-.62,1.01-1.31,2.19-3.29,3.34-4.4.68-.66,2.76-1.92,3.69-2.25,2.25-.81,8.18-2.17,10.41-2.19.62,0,1.86.46,2.49.71.44.18.15.76.21,1.1-1.2.35-2.26-.41-3.2-.55s-4.85,1.85-5.77,2.54c-2.11,1.59-2.23,5.61-4.33,7.36-.53-.66,1.37-2.39.9-3.24-1.57,1.89-2.82,4-3.85,6.23-2.18,4.72-3.94,10.25-7.6,14.17-.64.68-2.37,1.51-3.31,1.5-.45,0-.93-.3-1.43-.32-1.16-.05-6.75-.1-6.99-1.28.72-5.19,1.93-10.31,2.81-15.47.62-3.64.71-7.41,1.57-11.02.39-1.61,1.16-2.97,1.34-4.59-.76-.16-.81.39-1.16.82-2.63,3.33-5.22,8.86-6.5,12.92-1.74,5.54-1.14,7.01-5.1,11.81-.57.69-.25,1.55-1.53,1.72-1.06.15-1.64-.37-2.44-1.02-4.77-3.85-8.58-8.81-13.68-12.58-2.32-1.72-4.81-3.16-7.37-4.5,1.36-.88,3.99-.52,5.5-.1,1.68.47,3.49,2.13,4.92,2.63s4.04.81,5.4,1.43c3.35,1.53,6.97,5.86,9.9,8.09.31.24.35.49.9.36.54-1.68,1.12-3.34,1.62-5.03,2.19-7.37,4.82-14.88,10.47-20.27,1.53-1.46,1.61-2.2,4-3.03s5.12-1.59,7.65-2.42c.66-.22,1.29-.85,2-.9.63-.04,3.05.8,2.32,1.44Z"/>
  <path class="cls-1" d="M451.77,474.41c1.85-.32,6.82.86,7.65,2.61,0,2.02,1.84,5.45.97,7.21-.16.32-.65.21-.71.48-.22,1.05.49,2.58-.51,3.39s-5.06,1.28-6.49,1.42c-4.68.49-10.07.82-14.75,1.08-1.42.08-6.27-.3-7.03.16-.34.21-.41.53-.35.91,1.99.92,4.04,2.34,6.12,3.06,3.07,1.07,13.02,3.03,16.02,2.71,1.55-.16,1.48-.83,2.33-1.28.65-.34,4.2.67,5.11,1.01.32.12,1.23.61,1.38.86,1.54,2.59-.26,7.86-.71,10.76-.84,5.36-2.48,13.45-2.21,18.69.06,1.14.57,2.22.37,3.4l-3.54-5.27c-1.4-1.73-.91-3.38-1.21-5.26-.41-2.53-.84-2-.63-5.11.19-2.75.43-5.51.74-8.25.34-3.01,2.02-6.13,1.05-9.2-.76-.01-1.23.59-1.99.71-2.67.4-13.2-1.4-16.01-2.32-1.52-.5-8.95-4.31-9.72-5.39-.5-.7-.6-1.77-1.07-2.46-1.48-2.22-5.22-4.78-5.74-7.63-.13-.73-.26-1.48.7-1.24.09.49.21,1.11.44,1.54.74,1.36,2.04,3.33,3.68,3.51,2.63.3,5.35-.22,7.93-.39,6.51-.41,12.97-.83,19.42-1.44,1.43-.14,3.53.43,4.5-1.07-2.17-.52-4.43-.34-6.64-.43-.58-.02-1.14-.29-1.8-.31-4.56-.14-11.08,1.53-15.08-1.46-.18-.14-2.12-2.34-2.19-2.48-.23-.45-.18-1.01-.37-1.43-.81-1.77-1.8-3.51-2.34-5.39,1.42.97,2.44,2.6,4.06,3.31,3.78,1.66,14.66,1.43,18.34-.52.63-.33,2.08-1.81,2.6-1.72.45.08.56.43.19.9-.75.94-1.81,1.44-2.52,2.34Z"/>
  <path class="cls-1" d="M336.65,478.73c-.78,6.09,2.25,10.72,7.22,13.82,2.54,1.58,5.52,2.63,8.01,4.22,1.64,1.04,4.1,3.39,3.76,5.44-.27,1.62-1.65,5.83-2.64,7.09-.47.6-3.02,2.31-3.77,2.7-.42.22-.79.23-1.26.21-.61-.03-3.92-1.19-4.63-1.51-2.56-1.12-6.06-3.19-8.75-4.56-3.1-1.58-6.72-4.04-9.95-5.17-.53-.18-.4-.46-.95.24,1.13,2.3,3.52,3.68,5.4,5.37,3.32,4.48,8.89,6.76,13.13,10.26.94,1.02,2.16,5.79,1.43,6.86-.24.35-6.1,3.34-7.02,3.77-3.2,1.46-6.21,2.39-9.24,4.07-1.38.77-5.71,3.29-6.39,4.4-.45.73-.66,1.9-1.3,2.66l-1.06,5.23c-.01-.8-.42-1.51-.39-2.33.08-2.18,1.94-9.32,3.37-10.87.22-.23.69-.33.98-.63,3.62-3.78,6.38-6.25,11.17-8.62.89-.44,2.2-.58,3.19-1.13,1.12-.62,2.25-2.06,3.62-2.32-.53-1.71-2.22-2.11-3.57-3.08-4.38-3.18-8.36-6.68-12.27-10.39-1.59-1.51-1.9-2.94-3.07-4.49-.79-1.05-2.34-2.03-2.84-3.27-.53-1.31-1.12-7.34-.9-8.78.27-1.8,3.03-3.89,3.23-5.95h.72c-.41.6-.26,1.31-.45,1.89-.62,1.94-2.72,3.93-1.88,6.01.15.38,1.07,1.58,1.41,1.83,4.77,3.43,12.74,6.28,18.28,8.99,1.76.86,3.83,2.36,5.77,3.29,1.16.55,5.42,2.73,5.99.81l-.35-1.05c-1.84-1.04-3.82-1.94-5.63-3-4.37-2.57-7.62-4.25-9.29-9.42-1.02-3.15-.53-7.65-.15-10.94.06-.53.18-1.97,1.05-1.64Z"/>
  <path class="cls-1" d="M173.95,442.15c.4.41,1.1,1.99,1.65,2.29.95.52,2.8.94,3.76,1.65.22.16.31.73.61,1,.4.37,1.12.64,1.31.94.3.48,1.45,3.29,1.68,3.99,1.4,4.11,1.8,10.17,3.41,13.85.19.42.46.72.84.97.49.11.77-.43,1.02-.74,1.71-2,3.51-4.89,5.5-6.44,1.14-.88,2.79-1.58,3.88-2.53,1.88-1.64,2.33-1.6,4.32-2.87,1.79-1.14,4.3-3.82,6.27-4.52.44-.16,2.3-.55,2.7-.53.62.04,1.13.61,1.82.71,2.84.43,6.67.58,9.36,1.79.53.24.88.45,1.24.92-1.08.71-2.1-.38-3.07-.53-1.57-.24-3.86,0-5.19.9-.8.55-2.47,2.1-3.26,2.85-5.57,5.31-9.23,12.84-13.68,19.07l-1.06,2.35c.83.81,3.57-3.68,4.13-4.32,1.41-1.62,4.56-4.89,6.2-6.1.37-.27,1.87-1.29,2.16-1.37,1.78-.49,5.7.07,7.85-.07,1.67-.1,3.68-.62,5.37-.74.67-.05,1.5-.02,2.18.02.59.03,1.01.32.53.72-.75.02-1.52-.09-2.27.07-2.4.51-7.54,2.38-9.42,3.89-3.15,2.52-6.78,6.71-9.13,9.94-.24.33-.28.97-.48,1.13-.79.65-3.04.45-3.99,0-1.64-.79-4.06-1.81-5.55-2.73-1.23-.75-2.07-2.04-3.67-2.26-.17-1.11.35-2.21.94-3.13,2.9-4.56,5.71-9.15,9.25-13.42l2.73-4.28c-4.15,1.22-7.08,4.53-10.61,6.84-2.24,1.83-3.79,5.62-6.11,7.2-1.45.99-4.12,1.49-5.73,2.49-.63-.14-1.61-3.49-1.84-4.29-1.15-3.91-1.62-8.05-2.79-11.96-2.08-6.97-6.11-12.49-11.05-17.73-.15-.88.6-.57,1.07-.35,1.45.69,5.94,4.12,7.09,5.32Z"/>
  <path class="cls-1" d="M339.53,565.77c.16.71-.38.85-.75,1.22-.73.72-3.3,2.65-3.5,3.33-.75,2.52.95,5.59,1.45,7.96,1.32.73,2.32,1.88,3.56,2.74,1.44,1,3.52,1.94,4.98,2.93.54.37,2.37,1.7,2.5,2.2-.68,1.54.05,3.99-.36,5.28-.39,1.21-2.48-.13-2.11,1.3.32-.05.53-.05.7.26.62,1.14,1.77,3.5,2.09,4.68.15.57.55,3.03.41,3.46-.09.27-3.7,3.23-4.31,3.6-2.03,1.24-5.55,2.89-7.79,3.73-.91.34-5.19,1.39-5.41,1.6-.04.04-.48.97-.44,1,1.86.04,3.72-.05,5.58,0,.81.02,1.51.45,2.51.38,3.88-.25,10.09-1.04,13.03-3.72.38-.34,2.7-3.29,2.99-3.73.63-1,2.4-6.08,2.7-6.23.82-.41.53,1.16.46,1.54-.77,3.73-4.57,10.13-6.96,13.18-1.31,1.68-2.78,2.45-4.73,3.18-8.6,3.21-20.24.08-29.42.8-.71.06-2.45.32-3.07.52-.87.28-1.19,1.32-2.14,1.28-.38-.39,1.63-2.22,1.98-2.51,3.91-3.25,7.7-3.44,12.24-5.02,2.63-.92,5.1-2.08,7.72-3.07,1.32-.5,3.05-.56,4.32-1.07,1.53-.62,3.29-2.11,5.01-2.36-.32-4.52-3.11-8.24-5.37-11.97-.16-.26-.57-.22-.73-.49-1.81-2.97-5.44-9.23-5.76-12.52-.27-2.83.9-2.39,1.53-4.25.67-1.98.84-3.5,2.13-5.42.5-.74,4.34-4.46,4.98-3.83Z"/>
  <path class="cls-1" d="M293.37,277.08c3.38,1.73,6.44,3.5,10.72,3.83,6.36.5,8.7-1.94,13.82-4.54.48-.24.76-.7,1.47-.5l-1.68,1.38c-3.16,1.71-6.76,4.23-10.4,4.71-1.43.19-3.17-.02-4.66.01-2.28.05-4.73.42-7.1-.44-1.48-.54-3.6-1.35-5.21-1.63-1.85-.32-2.98-.2-5.04-.72-1.74-.44-3.04-.97-4.67-1.8-3.79-1.93-8.12-5.26-12.54-4.78-.72.08-.39.53-.77.73-2.93,1.55-5.52,2.81-7.93,5.31-.4.42-.16.65-1.17.46l4.27-6.01c.09-.42-.52-4.31-.69-4.94-2.22-8.1-6.78-15.97-9.6-23.85-.73-2.05-2.41-7.28-2.62-9.25-.17-1.62-.07-3.94.78-5.35.48-.8,5.63-5.82,6.27-5.96.45-.1,1,.47.87.88-.09.27-.96.82-1.24,1.28-1.98,3.23-1.05,6.32-.1,9.77,2.5,9.09,7.69,18.13,10.24,27.17.3,1.05.81,3.22.84,4.23.02.78-.85,2.35.35,2.17s1.92-1.08,2.86-1.47c1.56-.64,3.49-.63,5.15-.47,5.82,3.53,11.71,6.67,17.76,9.77Z"/>
  <path class="cls-1" d="M309.68,218.69c-1.21,1.54-2.64,3.45-4.34,4.47-1.02.61-2.59.86-3.66,1.37-5.75,2.72-11.14,4.93-17.25,6.85-1.46.46-10.63,2.59-11.04,3.17-.28,2.98,1.68,5.57,2.66,8.23.9,2.43,3.01,9.01,2.64,11.33-.13.83-1.24,3.46-1.64,4.42-.2.48-.63.35-.81.7-.71,1.38-.87,3.1-1.74,4.67-.25.45-1.53,2.56-2.23,1.9-.34-.31.93-1.47,1.15-1.9,1.51-2.84-.1-7.24-.69-10.24l-6.88-5.71,1.02-6.25h1.44c-.33-2.02-2.56-4.63-.7-6.27,2.72-2.41,5.71-2.65,8.9-3.69,1.21-.39,2.4-1.08,3.59-1.45,2.01-.63,4.26-.82,6.2-1.71-.44-.7-1.04-.43-1.62-.54-4.58-.83-13.33-3.13-17.55-2.44-4.53.74-5.76,4.78-7.65,8.2-.27.49.07.9-.89.71-.28-.34,1.46-5.82,1.78-6.67.26-.67,1.21-2.85,1.56-3.3.45-.59,2.06-2.45,2.66-2.98.23-.21.81-.23,1.19-.55.25-.21.28-.64.61-.9,1.34-1.02,6-.82,7.81-.67,4.16.34,8.3,1.77,12.29,2.46,2.89.5,9.43,1.27,12.22,1.12,2.14-.11,7.47-1.79,9.15-3.08.78-.6.48-1.58,1.8-1.25Z"/>
  <path class="cls-1" d="M363.75,478.26l3.22,2.28,7.53,7.29c.18.48.45.99.48,1.51.05.94-.4,3.92-.59,5.01s-.25,2.4-1.23,3.08c-1.06-.81.02-1.77-.24-2.98-.2-.96-2.35-2.91-3.17-3.68-5.72-5.4-12.81-9.5-17.17-16.09l-2.27-8.9c-.89-.07-.6-.07-.72.53-1.1,5.89-4.32,8.12-9.99,9.44-8.02,1.87-18.76,1.06-25.75,5.91-4.04,2.8-7.8,6.73-8.88,11.64-.14.62.39,1.06-.71.89-.15-1.58.54-3.3,1.16-4.77.84-2,6.03-10.57,7.5-11.57,2.06-1.41,1.38-1.77,2.6-2.98,3.54-3.51,13.63-4.1,18.39-4.81,7.42-1.12,15.4-1.88,14.96-11.48.54-.1.81.12,1.01.61.46,1.16.66,2.51,1.25,3.79,3.3,7.21,6.77,10.25,12.61,15.27Z"/>
  <path class="cls-1" d="M480.53,434.47c-5.76,1.94-11.64,3.41-17.51,4.97-3.02.5-5.26.53-8.1-.72-3.28-1.45-5.83-5.64-8.53-8.01-3.26-2.86-5.27-3.98-8.07-7.76-.47-.63-1.04-1.27-.93-2.13.07-.08,1.53,1.07,1.83,1.23,3.33,1.67,9.96,1.39,13.82,1.3,5.88-.14,12.08-1.19,17.99-.73,1.78.14,4.16.76,5.17,2.39.58.95,1.57,2.88,2.15,3.97.47.89,2.67,4.82,2.19,5.5ZM474.07,429.1c-1.44-.45-3-.45-4.51-.38-3.3.15-6.76.63-10.05.74-3.58.12-8.11-.43-11.5-.01-.34.04-.26.59-.21.9.03.19,2.77,1.94,3.23,2.17,2.27,1.15,4.49,1.47,7.03,1.25,3.27-.28,10.26-2.28,13.58-3.33.73-.23,2.06-.64,2.43-1.35Z"/>
  <path class="cls-1" d="M173.52,572.25c.14.04.65.63.54.72-2.99.65-6.83,1.11-9.87.7-.77-.1-1.48-.62-2.21-.69-.85-.09-1.47.29-2.07.26-1.93-.11-6.22-3.83-7.43-5.48-3.22-4.38-3.82-7.62-8.46-11.34-2.14-1.71-4.7-3.44-7.05-5.19-.41-.31-.9.02-.68-.92.63-.06,1.21.01,1.82.16,6.76,1.65,13.24,6.3,18.92,9.86,1.41.89,3.09,2.29,4.79,2.75,1.88.51,2.34-.57,3.4-2.01,1.9-2.58,3.43-5.71,5.3-8.36.83-1.17,4.24-5.75,5.15-6.37,1.42-.97,4.02-1.31,5.59-1.96,1.26-.53,2.73-1.65,3.95-2.17,2.71-1.15,6.27-1.33,9.09-.45.53.17,1,.35,1.34.81-.53.8-.79.43-1.44.37-2.3-.23-4.26-.79-6.57-.11-.79.23-2.9,1.84-3.67,2.44-.48.38-4.47,3.68-3.78,4.31h1.44s-1.42,9.91-1.42,9.91c-1.16-.11-4.81,1.79-5.57,1.59-.87-.23-.34-1.64-.74-2.15-.69.85-.84,1.91-1.46,2.86-.85,1.31-2.42,2.55-3.19,4-.2.22-.46.28-.75.33-1.07.18-4.18-.17-5.32-.43-1-.23-5.5-3.31-6.01-2.8-.09.52.07.88.28,1.34,1.43,3.13,7.17,8.01,10.69,8.01,1.27,0,4.46-.26,5.4,0Z"/>
  <path class="cls-1" d="M239.67,237.98c3.9,3.97,8.97,8.71,12.46,12.88,1.88,2.25,3.08,4.83,2.44,7.86-.6,2.83-2.88,7.48-4.3,10.09-1.19,2.17-1.24,2.99-2.08,5.11-.64,1.62-1.99,3.46-2.54,5.2l-.72-.18c.99-2.89-.12-6.41-1.25-9.17-1.88-4.58-5.24-10.55-7.67-14.99s-6.03-6.94-3.37-12.59c.86-1.82,2.57-2.88,3.35-4.74,1.38-.47.67.8,1.57.67l.58-1.05c1.12-.34,1.04.41,1.54.92ZM244.67,253.11c-1.53-1.6-3.22-3.94-4.8-5.45-.43-.41-1.41-.86-1.06-.02.38.9,2.03,2.71,2.67,3.81,2.26,3.9,5.56,10.54,6.86,14.73.1.33.56,1.7,1.09,1.43.11-.06,1.51-1.89,1.56-2.04.27-.9.1-3.44-.1-4.45-.56-2.84-3.47-5.47-5.41-7.55-.19-.2-.6-.25-.8-.45Z"/>
  <path class="cls-1" d="M367.55,549.63c.15.18,0,1.04.12,1.48.98,3.51,1.97,6.89,4.08,9.96,1.87,2.7,5.04,4.25,8.04,5.45l.03,1.04c-1.21.12-2.22-.69-3.36-1.14-.27-.11-.71-.66-.96-.12l7,9.91c.02.85.79,1.66.91,2.32.45,2.5-.55,2.83-1.5,4.6-1.24,2.31-2.2,3.54-3.67,5.68-.43.63-.51,1.66-1.46,2.06-.42.03-5.05-3.63-5.76-4.25-1.14-.99-2.2-2.28-3.22-3.24-2.75-2.58-7.97-6.85-8.39-10.7-.31-2.82,1.8-7.01,2.71-9.71.94-2.82,1.72-5.69,2.71-8.44.62-1.73,1.85-3.42,1.71-5.31l1.03.41ZM379.46,584.12c.43-.45-1.6-3.68-1.99-4.3-2.74-4.28-6.41-8.13-9.1-12.48-1.49-2.42-2.7-4.96-3.47-7.67-.43.29-.49.71-.64,1.15-.96,2.78-1.77,5.24-.63,8.03s2.73,3.77,4.58,5.68c2.72,2.82,5.84,6.57,9.13,8.67.34.22,1.91,1.15,2.14.92Z"/>
  <path class="cls-1" d="M128.62,374.17c1.1,1.09,2.35,3.61,3.32,4.42.53.44,1.1.39,1.37.6,3.32,2.54,6.79,7.46,9.44,10.89.49.63,1.92,1.62,2.17,2.15.22.48-.1.61-.54.54-1.3-.19-3.13-1.87-4.84-2.36-3.77-1.08-8.74-1.09-12.71-2.04-1.98-.48-4.22-1.45-6.29-1.98-4.86-1.24-9.73-2.46-14.57-3.77-.49-.22-.83-.6-1.14-1.02-.83-1.11-2.76-5.7-3-7.07-.11-.67-.26-2.14.08-2.64l.42-.29c1.79-.26,3.59-.25,5.36-.4,4.61-.37,10.49-.78,15.11-.37.64.06,1.76.29,2.31.56s3.01,2.29,3.51,2.79ZM135.56,383.78c.11-.68-.47-1.04-.9-1.43-1.47-1.34-5.56-4.34-7.36-4.87-3.07-.91-10.46-.75-13.88-.54-1.04.06-1.98.5-3.04.38.12.68.75.6,1.22.76,3.48,1.2,8.45,2.47,12.08,3.39,3.91.98,7.94,1.54,11.88,2.33Z"/>
  <path class="cls-1" d="M135.09,344.71c.34.19,2.71,1.59,2.9,1.76.95.86,2.21,3.56,3.08,4.47.22.24.7.33.98.63,1.56,1.67,2.33,2.17,2.53,4.68.05.69.34,2.35-.73,1.99.14-2.53-.27-4.27-2.55-5.54-5.25-2.92-14.13-3.1-20.2-4.26-1.78-.34-5.05-.59-5.29-2.62-.21-1.74-.5-4.79-.4-6.48.15-2.58,1.15-5.43,1.37-7.98.05-.63.12-.74-.46-1.16-2.7,3.04-5.15,6.59-7.08,10.18-.41.77-1.53,2.7-1.67,3.38-.21,1,.56,3.6.92,4.7.6,1.89,1.67,3.59,2.26,5.47-.62.12-.91-.3-1.24-.73-1.25-1.63-3.3-4.86-4.07-6.72s-2.33-6.22-1.81-8.12c.22-.8,2.55-4.83,3.15-5.84,5.4-9,15.27-16.36,16.89-27.36.09-.65.02-1.3.03-1.95.49-.05.66,1.33.69,1.65.16,1.85-.26,3.24-.7,4.99-.98,3.85-1.95,5.95-3.5,9.45-2.12,4.8-1.87,11.51-2.68,16.74-.16,1.05-1.44,3.95-.29,4.76.76.54,5.74,1.33,7.05,1.58,3.16.59,8.11.81,10.82,2.32Z"/>
  <path class="cls-1" d="M226.58,555.7l-1.78,1.29c-.76,1.26-2.69,1.63-3.96,2.5-5.44,3.74-8.2,13.4-10.9,19.31-.39.85-2.42,5.13-2.79,5.49-1.15,1.12-2.75.74-4.14.89-.62.07-1.18.34-1.78.37-2.87.16-5.63-.27-8.46-.37-.22-1.95.85-3.7,1.05-5.61.43-4.24.21-9.49,2.03-13.43,1.02-2.21,3.12-3.48,5.3-4.41,5.25-2.25,10.64-1.98,15.81-3.62,1.99-.63,2.82-1.23,5.1-1.74,1.53-.34,2.91-.91,4.53-.69ZM211.47,560.74c-3.67.48-7.1,1.9-8.83,5.38s-1.61,8.52-1.99,12.39c-.17,1.77-.73,3.51-1.05,5.24.82.11.93.02,1.39-.59.83-1.1,1.98-4.18,2.63-5.64,2.21-4.94,4.22-10.15,6.6-14.98.13-.26,1.47-1.63,1.24-1.81Z"/>
  <path class="cls-1" d="M382.34,303.57c.83-1.57,2.14-2.79,3.03-4.34,1.03-1.8,1.7-4,2.84-5.79.96-3.87,1.31-7.8,1.5-11.81l.87.22-.15,4.82c2.42-3.58,2.04-9.27,6.18-11.45,1.35-.71,3.16-.94,4.68-1.03.66-.04,2.25-.11,2.83-.1.49,0,.84.6,1.42.71,1.05.19,2.95-.32,3.79.17.37.22.02,1.67-.06,2.12-.77,4.19-1.76,9.15-2.93,13.25-1,3.5-2.33,7.02-6.02,8.37-2.69.99-6.65,1.17-9.37,2.14-1.6.57-2.3,1.26-4.59,1.88-1.35.37-2.37,1.24-4.03.83ZM402.85,276.24c-.44.01-.73-.17-1.09.23-.65.71-1.45,2.21-1.85,3.12-1.97,4.42-3.15,9.57-4.95,14.11-.33.83-2.56,4.75-2.17,5.2,4.11-1.02,5.69-4.38,6.81-8.11l3.26-14.54Z"/>
  <path class="cls-1" d="M393.62,362.45c.05.08.4.07.49.22.56.88-.11.8,1.47,1.6.5.25.99-.22.79.81-.67.05-1.29-.19-1.9-.44-3.28-1.36-6.19-3.58-9.62-5.13-2.94-1.33-3.45-2.05-5.99-3.72-2.79-1.84-6.05-3.25-8.77-5.26-.27-.17-.57-.23-.89-.23-2.22.01-5.33,5.68-6.65,7.33l-3.32,3.24c-1.25.51-2.7.13-4.03.28-2.86.33-6.98,1.48-9.79.72-.61-.16-1.02.3-.85-.75,2.76.22,5.39-.33,7.73-1.8,4.88-3.08,6.51-9.74,11.5-12.58l7.3,2.61c2.54,2.51,6.34,4.24,9.43,6.21.67.43,2.15,2.13,3.07,1.96.85-.15.2-1.04.01-1.45-1.17-2.45-3.35-6.63-4.92-8.75-.8-1.08-2.05-1.69-2.82-2.56-.53-.61-.88-1.66-1.45-2.16-3.23-2.81-9.09-1.22-12.93-1.27-.12-1.1,2.29-1.53,3.14-1.71,2.97-.64,9.28-1.47,12.07-.73.79.21,3.79,1.85,4.37,2.46,5.7,6.03,8.66,13.91,12.56,21.09Z"/>
  <path class="cls-1" d="M351.19,482.56c2.51,2.99,5.81,4.9,9.04,6.95,1.43.9,2.61,2.11,4.15,2.73,0,.57,0,1.13-.1,1.7-.96,4.87-4.79,10.58-7.53,14.77-.44.67-3.45,3.87-2.82,4.55,1.09.08,1.36-1.18,1.97-1.81,3.89-4.02,10.16-5.8,14.92-8.82l1.46-3.76c.66.14.68.69.74,1.24.25,2.6.46,5.8-.82,8.21-.43.81-1.32,1.4-2.11,1.84-6.31,3.55-13.43,5.17-19.21,9.57l-6.3,6.11c-.19-1.56,1.18-2.24,1.96-3.25,1.74-2.24,2.64-4.57,4.14-7.01,2.12-3.45,4.66-6.71,6.79-10.12.68-1.09,3.52-5.92,3.65-6.8.04-.26.1-.62-.05-.82-2.15-1.44-4.97-2.78-6.96-4.37-1.74-1.39-5.43-5.28-5.87-7.44-.18-.91.05-1.83-.14-2.73-.52-2.48-1.53-4.45-1.74-7.26-.05-.72-.13-1.73.73-1.98-.07.89-.03,1.57.28,2.42.38,1.04,3.04,5.16,3.82,6.09Z"/>
  <path class="cls-1" d="M444.58,519.73c.55.1.8-.12,1-.61,1.03-2.53.09-6.5.46-9.26.37-2.74,1.7-5.07.99-8.22-.16-.72-1.1-1.39-1.01-1.86,1-1.18,1.47.38,1.96.9,1.33,1.41,2.01,2.47,3.09,4.05.17.25.55.22.69.52,1.14,2.38-.29,7.38-1.25,9.81-2.01,5.11-4.59,8.39-5.49,14.3-.15,1.01.07,2.06-.27,2.97-1.98-1.83-1.12-4.56-1.25-7.02-.04-.7-.35-1.34-.38-2.13-.11-2.53.51-8.46-.74-10.41-.32-.51-3.77-2.72-4.5-3.05-2.87-1.32-5.98-2.32-8.77-3.46-.77-.32-2.44-.91-3-1.25-.24-.14-.23-.54-.49-.72-.43-.31-1.07-.49-1.44-.83-1.56-1.46-2.77-4.94-4.12-6.84-1.28-1.8-3.37-3.24-4.25-5.46.8-1.17,1.43.7,1.96,1.27,1.02,1.08,2.31,2.47,3.42,3.42,2.65,2.27,8.65,4.68,12.14,5.84,3.26,1.09,7.19.15,10.53.08-.02,1.67-1.97.91-3.03,1.11l-2.37.69c1.74.65,3.26,1.9,4.5,3.24.35.71.07,1.53.26,2.26.32,1.27,1.36,3.54,1.36,4.75v5.93Z"/>
  <path class="cls-1" d="M315.93,504.15c.96,1.16,2.4,2.16,3.27,3.38.31.43,1.84,3.11,1.93,3.47.62,2.67-1.9,4.32-1.73,6.95.17.18,2.67-1.41,3.24-1.62,1.84-.67,4.06-.75,5.59-2.33,1.07-1.11.75-2.95,1.25-4.33.71.13.6.75.73,1.24.57,2.14,1.42,7.38-.1,9.1-.45.5-3.26,1.98-4.03,2.26-5.09,1.82-9.25,3.27-13.3,7.2l-2,3.21c-.11-1.27.33-2.53.81-3.68,1.37-3.26,4.16-6.87,5.57-10.26.79-1.91.19-3.67-.98-5.31-.5-.7-2.41-1.98-2.52-2.23-.25-.54-.84-2.74-1.06-3.54-.64-2.31-.92-5.12-1.63-7.37-.81-2.59-2.09-4.3-2.36-7.35-.13-1.48-.47-4.58,1.08-5.22.1,1.33-.47,2.42-.37,3.78.24,3.16,4.52,10.11,6.62,12.64Z"/>
  <path class="cls-1" d="M162.54,492.4h-8.09c-.93,0-4.11,4.62-4.8,5.63-2.4,3.53-4.5,7.27-7.09,10.54-.81,1.02-3.91,5.02-4.74,5.4s-2.25.54-3.18,1.09c-2.64-.79-5.46-1.15-8.08-1.98-.53-.17-1.08-.2-1.43-.72,1.14-1.46,2.99.16,4.07.09,2.39-.15,4.6-3.05,5.99-4.77,3.25-4.02,6.39-8.84,9.35-13.02,1.26-1.77,1.8-4.11,4.51-4.09.79,0,1.45.37,2.15.4,3.38.13,6.79-.27,10.13.67.49.14,1.1.12,1.21.77Z"/>
  <path class="cls-1" d="M175.39,290.75c1.56.71,3.95,1.79,5.61,2.82,4.15,2.55,1.66,3.45,1.32,7.48-.66.83-7.89-3.46-9.1-4.02-1.8-.83-8.14-2.87-9.07-4.24-.69-1.01.25-2.52.47-3.5.24-1.1-.3-2.26.97-2.92,2.97,2.02,6.56,2.91,9.79,4.38Z"/>
  <path class="cls-1" d="M405.61,420.93c.59.6,1.15,2.48,1.14,3.31-.02,2.13-.77,4.49-1,6.5-.11.96.09,1.96-.02,2.86-.54,4.17-2.58,11.48-.91,15.28.12.28,1.95,2.8,1.08,2.88-.42-.95-1.39-1.14-1.93-2.03-1.13-1.85-1.98-4.63-2.21-6.78s.16-6.17-.44-7.83c-.31-.86-1.17-1.51-1.33-2.62-.36-2.42.56-5.12.71-7.53.11-1.75-.03-3.59-.07-5.34-.24-.81-4.51-2.97-4.62-3.3-.27-.84.66-.53,1.1-.38,2.84,1,5.72,3.68,8.5,4.99Z"/>
  <path class="cls-1" d="M172.61,305.36c-.6.09-1.16-.06-1.72-.24-3.65-1.2-7.19-2.93-10.76-4.34-.61-.24-1.22-.43-1.88-.46l.87-6.47c.3-.4.57-.39,1.03-.29,1.01.2,2.81,1.5,3.84,1.93,1.29.53,2.62,1.01,3.95,1.45s6.09,1.06,6.13,2.85c.02,1.2-1.58,4.06-1.44,5.58Z"/>
  <path class="cls-1" d="M287.61,209.47c1.4,1.27,2.71,2.69,4.1,3.98,1.12,1.71-.31,2.08-1.1,2.88-.73.73-2.43,3.02-3.53,2.28-.08-.05-.04-.4-.17-.5-1.13-.86-2.14-1.85-3.13-2.82-.81-.79-4.46-4.13-4.27-5.01.14-.64,1.83-1.69,2.37-2.14.48-.4,1.15-1.68,2.09-1.7.33,0,3.08,2.51,3.65,3.03Z"/>
  <path class="cls-1" d="M134.48,351.77l1.74,5.29c.14,2.07-8,3.23-9.56,4.37-.3.1-.57.1-.84-.1-.65-.49-1.35-4.25-2.09-5.14-.11-.31-.08-.57.11-.84.16-.24,4.64-2.17,5.22-2.34,1.1-.33,2.54-.3,3.71-.61.63-.16,1.02-.71,1.7-.64Z"/>
  <path class="cls-1" d="M459.3,297.84l-.35,8.78c-.55,1.04-.44,2.76-1.87,2.64-1.7-.15-3.36-.75-4.91-1.41-.36-1.29.22-2.54.32-3.72.16-1.94.1-4.16.37-6.11.06-.42.26-.95.53-1.27.48-.56.39-.17.76-.06,1.65.53,3.44.74,5.15,1.16Z"/>
  <path class="cls-1" d="M146.72,409.67l-10.21,2.1c-.74-.14-3.72-5.56-3.09-6.05,3.03-.16,7.28-2.6,10.19-1.75.97.28,1.12,1.69,1.53,2.42.29.52,2.03,2.95,1.59,3.27Z"/>
  <path class="cls-1" d="M389.5,538.83l-.33,6.43c-3.39.15-6.6-1.24-9.66-2.55l.32-6.79c.39-.41,5.11,1.77,6.03,2.06,1.19.38,2.47.41,3.65.85Z"/>
  <path class="cls-1" d="M474.82,490.99l9.1-2.52c.47.16.46.5.57.89.3,1.08.97,4.06.69,4.98-.15.49-2,1.07-2.65,1.31-.95.36-5.49,1.93-6.09,1.77-.44-.12-.46-.54-.57-.89-.28-.83-1.39-5.06-1.05-5.54Z"/>
  <path class="cls-1" d="M232.22,277.08c.05.03.82.79.83.85.07.35-.12,1.04.03,1.16.38-.12,2.59,1.31,2.68,1.44.23.33.12.99.35,1.45.18.35.75.57.86.97.26.88-1.36,2.1-1.62,2.99-.2.67.61,1.4-.37,1.76l-2.3.23c-.67-.29-4.47-4.74-4.59-5.45-.02-.14.29-2.43.36-2.75.07-.29.45-.55.55-.89.26-.87.26-1.72.85-2.58.22-.16,1.98.59,2.37.83Z"/>
  <path class="cls-1" d="M109.27,323.68c-1.13.24-2.03,1.02-3.11,1.38-.68.23-4.88,1.18-5.27,1.11-.77-.14-2.5-5.17-2.34-5.81.29-1.19,2.95-1.11,4.01-1.41.95-.27,3.97-1.53,4.73-1.33.8.21.8,2.79,1.1,3.6s1.29,1.35.88,2.47Z"/>
  <path class="cls-1" d="M223.61,423.07c.18.19.22.58.4.82l-7.68,4.86-.5-.05c-.76-1.82-2.32-3.08-3.61-4.5-.12-.56,1.98-2,2.52-2.48.21-.19.24-.67.43-.82.25-.19.85-.17,1.24-.37.59-.31,2.47-1.5,2.83-1.53,1.53-.16,2.58,2.49,3.4,3.45.29.34.78.39.99.61Z"/>
  <path class="cls-1" d="M240.25,560.02c.13,3-.44,5.97-.77,8.94-.14.22-3.32,1.2-3.9,1.67-.74.59-.22,2.24-1.44,1.98.4-1.12-1.04-1.39-1.1-1.67-.36-1.85.48-4.55.71-6.45.08-.68-.12-2.31.09-2.61.08-.11,2.22-1.41,2.36-1.44.46-.1.87.24,1.31.21.78-.05,1.77-.91,2.75-.62Z"/>
  <path class="cls-1" d="M422.63,508.95c-1.72.33-3.25-.57-4.85-.73-.8-.08-2.93.21-3.36-.08-.09-.06-.06-.4-.19-.5-.58-.44-1.3-.72-1.62-1.46.04-1.69-.61-3.15-.04-4.77,2.92-.26,5.78.27,8.63.86.48.31,1.79,6.3,1.42,6.67Z"/>
  <path class="cls-1" d="M130.81,451.12c.46.45.56,1.9.37,2.55l-3.17,5.85c-.46.23-5.34-1.26-5.6-1.62-.4-.55.39-2.96.66-3.7.31-.85,2.67-5.31,3.32-5.31.79,1.37,3.45,1.28,4.42,2.23Z"/>
  <path class="cls-1" d="M145.9,560.12c1.33,1.18.95,2.25,1.25,3.6.35,1.54,1.45,2.75,1,4.57-2.39-.35-3.47,2.05-5.89,1.11-.66-1.71-2.71-9.25-1.32-10.31.7-.53,1.25.26,1.79.39.82.2,1.92-.48,3.17.63Z"/>
  <path class="cls-1" d="M478.66,445.94c-.17.12-.6-.01-.88.17-1.34.9-2.71,1.25-4.32,1.98-.55.25-1.18,1.01-1.72,1.03-1.06.05-.81-.86-1.1-1.28-.79-1.14-2.59-3.02-2.33-4.49,1.94-1.76,4.91-2.35,7.35-3.41l3.29,4.65c.23.28-.07,1.21-.28,1.35Z"/>
  <path class="cls-1" d="M280.68,566.72c.77.81,3.38,3.33,3.47,4.27.12,1.33-1.28,3.13-1.9,4.24-.32.57-.12,1.65-1.19,1.61-.43-.02-5.19-5.59-5.57-6.57.7-2.08,1.81-4.05,3.42-5.57.77.51,1.19,1.43,1.76,2.02Z"/>
  <path class="cls-1" d="M151.33,344.99s-.17.69.03,1.2c.47,1.19,2.04,2.21,1.83,3.77-2.77.76-5.7,1.13-8.57,1.02-.93-1.9-3.27-3.36-2.93-5.69.97.29,1.75-.55,2.41-.67.46-.08.91.24,1.29.19,1.73-.24,4.62-1.21,5.94.18Z"/>
  <path class="cls-1" d="M209.25,296.44l.78,6.41c-.36.39-7.29-1.58-7.83-2.24-.43-.53-1.77-6.16-1.52-6.39,3-.12,5.82,1.18,8.57,2.22Z"/>
  <path class="cls-1" d="M297.41,495.31c.11.08,1.09,1.85,1.48,2.3.83.95,1.98,1.66,2.44,2.89-1.31,1.14-2.76,4.84-4.75,4.51-.25-.04-.37-.78-.73-1.11-1.15-1.07-2.35-1.37-2.92-3.21s.73-2.05,1.52-3c.49-.59,1.99-3.04,2.96-2.37Z"/>
  <path class="cls-1" d="M147.44,340.26c-.02.59.23.79-.47.65-1.86-.38-3.6-.25-5.45-.67-4.31-.16-8.2.04-12.42.57-.67.08-.92.4-1.45-.37.39-.42.64-.79,1.26-.9.91-.15,2.63-.32,3.58-.38,5.03-.29,10.02.28,14.95,1.1Z"/>
</svg>