<?xml version="1.0" encoding="UTF-8"?>
<svg xmlns="http://www.w3.org/2000/svg" viewBox="0 0 800 800" preserveAspectRatio="xMidYMid meet">
  <g class="layer">
    <title>Layer 1</title>
    <g fill="#ffffff" filter="url(#svg_1_blur)" id="svg_1" transform="translate(0 800) scale(0.1 -0.1)">
   <path d="m4563,5956c-49,-16 -124,-58 -142,-80c-9,-11 -25,-13 -65,-9c-58,6 -100,-10 -148,-55c-34,-31 -38,-80 -9,-106c18,-17 20,-17 40,3c12,12 30,21 42,21c26,0 72,-50 95,-104c10,-22 19,-42 20,-44c1,-2 36,14 78,35c56,28 78,44 85,64c14,40 64,62 141,63l65,1l-2,-40c-1,-22 -2,-43 -2,-47c-1,-5 -18,-8 -39,-8c-62,0 -92,-49 -58,-96c13,-17 31,-20 158,-24c128,-5 148,-8 188,-30c49,-27 90,-92 90,-143c0,-21 16,-46 60,-95c97,-108 91,-169 -20,-180l-51,-5l3,-61l3,-61l85,0c112,1 174,19 220,65c68,68 77,184 26,346l-26,80l22,60c15,41 22,83 22,139c1,69 -2,85 -23,114c-53,74 -201,100 -384,67l-94,-17l-51,49c-96,94 -225,132 -329,98z" fill="#ffffff" id="svg_2"/>
   <path d="m4494,5491c-47,-28 -52,-33 -57,-76c-10,-71 -39,-127 -96,-185c-35,-36 -51,-60 -49,-74c3,-21 8,-21 226,-24l222,-2l0,-45l0,-44l-157,-3l-158,-3l-3,-52c-8,-142 77,-183 242,-117c33,13 63,24 67,24c5,0 10,-38 11,-85l3,-85l115,68l115,68l3,147l3,147l32,0c42,0 78,25 70,48c-3,9 -29,41 -57,70c-43,44 -50,57 -48,86c2,24 -4,41 -21,62l-25,29l-159,5c-164,6 -197,14 -209,52c-7,23 -10,23 -70,-11zm145,-161c12,0 33,11 47,25c14,14 28,25 32,25c17,0 74,-69 67,-80c-12,-19 -107,-60 -140,-60c-38,0 -104,30 -129,59c-19,21 -19,22 14,56l33,34l27,-30c16,-16 38,-29 49,-29z" fill="#ffffff" id="svg_3"/>
   <path d="m2870,5083c0,-4 11,-44 25,-88c14,-44 25,-81 25,-82c0,-1 -77,18 -171,43c-94,24 -173,44 -176,44c-2,0 9,-18 26,-39c17,-21 31,-41 31,-44c0,-3 -36,-25 -80,-49c-44,-24 -80,-46 -80,-49c0,-4 25,-25 55,-48l56,-42l-46,-52l-45,-52l216,-3c233,-3 244,0 244,48c0,36 -16,48 -70,52l-45,3l-3,53l-3,52l53,0c97,-1 145,-35 172,-122c4,-12 16,-18 35,-18c55,0 135,-22 194,-53c73,-38 100,-80 107,-166c5,-62 6,-64 39,-75c19,-6 43,-23 54,-37c58,-79 11,-239 -70,-239c-21,0 -23,-4 -23,-55c0,-30 4,-55 8,-55c28,0 122,36 151,57c59,45 71,87 71,261l0,152l-26,10c-14,6 -43,10 -65,10c-35,0 -39,3 -39,25c0,31 -25,93 -48,118c-9,11 -55,44 -101,74c-113,73 -211,149 -353,272c-65,56 -118,98 -118,94z" fill="#ffffff" id="svg_4"/>
   <path d="m5177,4820c-16,-5 -67,-30 -113,-57l-84,-48l0,-212c0,-117 3,-213 6,-213c12,0 129,118 166,168c63,84 110,192 115,265c7,86 -22,117 -90,97z" fill="#ffffff" id="svg_5"/>
   <path d="m3743,4713c-7,-3 -13,-18 -13,-34c0,-19 -5,-29 -15,-29c-10,0 -15,10 -15,30c0,24 -4,30 -21,30c-18,0 -20,-5 -17,-47l3,-48l158,-3l157,-3l0,51c0,43 -3,50 -20,50c-16,0 -20,-7 -20,-30c0,-20 -5,-30 -15,-30c-10,0 -15,10 -15,30c0,23 -4,30 -20,30c-16,0 -20,-7 -20,-30c0,-20 -5,-30 -15,-30c-10,0 -15,10 -15,30c0,23 -4,30 -20,30c-16,0 -20,-7 -20,-30c0,-20 -5,-30 -15,-30c-10,0 -15,10 -15,29c0,32 -7,41 -27,34z" fill="#ffffff" id="svg_6"/>
   <path d="m4785,4615c-131,-79 -227,-186 -296,-330c-47,-97 -74,-194 -58,-210c5,-5 51,-10 103,-10c86,0 97,2 167,37c41,20 93,51 117,67l42,31l0,225c0,124 -4,225 -8,225c-5,0 -35,-16 -67,-35z" fill="#ffffff" id="svg_7"/>
   <path d="m3018,4570c-26,-46 -71,-60 -188,-60l-100,0l0,-109l0,-108l-55,-77c-30,-42 -55,-83 -55,-91c0,-11 13,-15 55,-15l55,0l0,-50c0,-34 5,-52 14,-56c27,-10 100,18 133,51l33,33l45,-25c25,-13 45,-28 45,-32c0,-5 -14,-27 -31,-50c-38,-53 -114,-91 -184,-91l-50,-1l38,-33c67,-60 151,-65 247,-16c22,11 42,20 45,20c3,0 5,-43 5,-95l0,-94l37,21c28,17 53,22 105,22l68,0l0,248l0,248l44,0c50,0 69,16 64,57c-3,26 -6,28 -55,31l-51,3l-4,94c-2,75 -7,99 -24,122c-27,38 -97,71 -164,79c-54,5 -55,5 -72,-26zm72,-172c50,-26 80,-74 88,-144l5,-44l-62,0l-61,0l0,39c0,47 -20,71 -59,71c-36,0 -48,-15 -57,-68l-7,-42l-53,0l-54,0l0,33c0,142 131,220 260,155z" fill="#ffffff" id="svg_8"/>
   <path d="m3660,4520c0,-15 7,-20 26,-20c25,0 76,-41 85,-69c4,-11 9,-12 27,-2c13,7 37,11 55,9c26,-2 35,2 50,25c10,16 29,30 47,34c21,4 30,11 30,24c0,18 -10,19 -160,19c-153,0 -160,-1 -160,-20z" fill="#ffffff" id="svg_9"/>
   <path d="m5278,4447c-76,-155 -276,-337 -489,-443c-266,-134 -545,-45 -754,240c-44,60 -86,106 -98,110c-12,3 -43,6 -68,6c-56,0 -88,-29 -96,-88c-5,-36 1,-49 56,-134c210,-325 571,-466 925,-363c182,53 327,142 479,292l77,77l0,178c0,98 -1,178 -3,178c-2,0 -15,-24 -29,-53z" fill="#ffffff" id="svg_10"/>
   <path d="m5266,3924c-46,-54 -160,-137 -233,-170l-53,-24l0,-380l0,-380l170,0l170,0l0,500c0,275 -3,500 -7,500c-5,-1 -25,-21 -47,-46z" fill="#ffffff" id="svg_11"/>
   <path d="m4780,3657c-53,-16 -93,-20 -212,-21l-148,0l0,-333l0,-333l220,0l220,0l0,355c0,195 -3,354 -7,354c-5,-1 -37,-10 -73,-22z" fill="#ffffff" id="svg_12"/>
   <path d="m3108,3557c-115,-49 -229,-156 -337,-318c-61,-90 -141,-238 -141,-259c0,-7 198,-10 601,-10l600,0l-6,23c-11,36 -93,185 -153,277c-70,109 -197,235 -277,275c-50,25 -74,30 -145,33c-71,2 -94,-1 -142,-21z" fill="#ffffff" id="svg_13"/>
   <path d="m942,2184c-88,-251 -149,-440 -145,-447c6,-8 44,-12 120,-12l113,0l30,85c17,47 42,118 57,158l26,72l98,0c55,0 99,-2 99,-3c0,-2 -23,-68 -50,-147c-29,-81 -47,-147 -42,-152c5,-5 60,-7 122,-6l114,3l74,210c41,116 109,309 152,430c42,121 75,226 73,233c-4,9 -38,12 -122,12l-116,0l-54,-158c-80,-231 -63,-212 -176,-212c-52,0 -95,4 -95,8c0,5 26,83 59,173c32,90 56,169 54,176c-4,10 -37,13 -122,13l-116,0l-153,-436z" fill="#ffffff" id="svg_14"/>
   <path d="m1817,2197c-81,-232 -150,-432 -153,-444c-4,-15 -1,-22 12,-25c9,-1 151,-2 314,0l298,3l31,85c49,135 62,124 -154,124c-102,0 -185,3 -185,6c0,4 8,28 17,55l18,49l160,2l160,3l33,93c18,52 31,100 28,108c-4,11 -35,14 -151,14c-109,0 -145,3 -145,13c0,6 9,35 19,62l19,50l194,3l193,2l34,99c19,54 31,103 27,110c-5,8 -94,11 -314,11l-307,0l-148,-423z" fill="#ffffff" id="svg_15"/>
   <path d="m2757,2463c-254,-473 -377,-710 -375,-723c2,-9 13,-14 28,-14c14,1 69,2 122,3l98,1l45,90l45,90l85,0c47,0 85,-2 85,-4c0,-3 -7,-35 -16,-72c-25,-111 -29,-107 113,-108l122,-1l6,25c29,149 144,853 140,860c-4,6 -91,10 -210,10l-204,0l-84,-157zm232,-95c0,-7 -13,-69 -28,-138l-28,-125l-56,-3c-32,-2 -57,1 -57,6c0,12 109,243 122,260c6,6 19,12 29,12c11,0 19,-6 18,-12z" fill="#ffffff" id="svg_16"/>
   <path d="m3392,2183c-91,-260 -149,-440 -144,-445c5,-5 113,-8 243,-6l234,3l68,32c81,39 164,118 202,194c15,29 54,130 87,224c86,242 83,329 -10,392c-52,34 -119,43 -330,43l-197,0l-153,-437zm459,199c32,-27 28,-67 -25,-216c-55,-156 -72,-186 -116,-208c-31,-16 -150,-26 -150,-14c0,5 133,389 149,429c10,25 15,27 65,27c37,0 61,-6 77,-18z" fill="#ffffff" id="svg_17"/>
   <path d="m4700,2610c0,-6 -68,-202 -150,-436c-85,-240 -147,-430 -143,-437c6,-9 83,-12 285,-12l278,0l35,97c20,54 33,102 30,108c-4,6 -68,10 -161,10c-85,0 -154,3 -154,8c0,4 52,151 114,327c62,176 111,326 109,333c-6,15 -243,18 -243,2z" fill="#ffffff" id="svg_18"/>
   <path d="m5232,2183c-86,-247 -149,-440 -144,-445c5,-5 60,-7 122,-6l114,3l74,210c41,116 109,309 152,430c42,121 75,226 73,233c-4,9 -37,12 -122,12l-116,0l-153,-437z" fill="#ffffff" id="svg_19"/>
   <path d="m5800,2610c0,-5 -68,-202 -150,-437c-97,-272 -147,-430 -141,-436c5,-5 59,-10 120,-11l111,-1l25,70c14,39 47,133 74,210c56,161 47,172 85,-98c14,-93 26,-170 28,-172c2,-2 56,-5 120,-7l118,-3l25,70c133,367 281,802 278,813c-4,9 -38,12 -122,12l-116,0l-54,-158c-89,-262 -79,-259 -115,-37l-31,190l-128,3c-82,2 -127,-1 -127,-8z" fill="#ffffff" id="svg_20"/>
   <path d="m6675,2611c-19,-31 -304,-866 -298,-872c12,-12 35,-12 339,-11l281,2l32,88c17,48 31,95 31,105c0,15 -16,17 -185,17c-102,0 -185,3 -185,6c0,4 8,28 17,55l18,49l160,0l160,0l34,99c19,54 31,103 27,110c-5,7 -54,11 -152,11c-103,0 -144,3 -144,12c0,6 8,35 18,65l17,53l195,0l195,0l34,99c19,54 31,104 27,110c-9,14 -612,16 -621,2z" fill="#ffffff" id="svg_21"/>
  </g>
    <polygon cx="14.5" cy="428" edge="0" fill="#FF0000" id="svg_22" orient="x" shape="regularPoly" sides="5" stroke-width="5" stroke="#000000"/>
    <polygon cx="98.5" cy="453" edge="0" fill="#ffffff" id="svg_23" orient="x" shape="regularPoly" sides="5" stroke="#ffffff" stroke-width="5"/>
  </g>
  <defs>
    <filter id="svg_1_blur">
      <feGaussianBlur in="SourceGraphic" stdDeviation="0.1"/>
    </filter>
  </defs>
</svg>