<?xml version="1.0" encoding="UTF-8"?>
<svg id="_Слой_1" data-name="Слой 1" xmlns="http://www.w3.org/2000/svg" viewBox="0 0 813.87 184.04">
  <defs>
    <style>
      .cls-1 {
        fill: #fff;
      }
    </style>
  </defs>
  <g id="_Фигура_1" data-name="Фигура 1">
    <path class="cls-1" d="M73.23,100.17l-12.53,35.41h-22.7l12.53-35.41h-20.96L0,184.03h21.07l10.58-30.28h22.7l-10.69,30.28h21.07l29.45-83.86h-20.96ZM113.31,152.23h30.97l6.46-18.17h-30.97l5.45-15.72h37.49l6.46-18.17h-58.45l-29.57,83.86h58.45l6.46-18.17h-37.49l4.73-13.63ZM192.46,100.17l-44.7,83.86h22.24l8.93-18.29h19.44l-3.92,18.29h22.12l14.32-83.86h-38.42ZM201.7,150.14h-15.25l14.41-29.58h7.34l-6.49,29.58ZM289.8,100.17h-32.6l-29.57,83.86h33.88c9.62,0,17.93-2.64,24.91-7.92,6.99-5.28,12.03-12.31,15.13-21.08l9.12-25.97c.8-2.33,1.38-4.54,1.75-6.64,1.03-5.82.29-10.68-2.21-14.56-3.44-5.12-10.25-7.69-20.42-7.69ZM289.19,129.4c-.25,1.4-.68,2.95-1.29,4.66l-6.74,19.1c-1.57,4.5-3.56,7.75-5.97,9.73-2.41,1.98-5.43,2.97-9.08,2.97h-11.06l16.64-47.52h7.57c7.92,0,11.22,3.69,9.93,11.06ZM595.32,100.18h-20.96l-29.57,83.86h53.09l6.46-18.17h-32.14l23.11-65.69ZM636.77,100.18l-29.57,83.86h21.07l29.45-83.86h-20.96ZM717.93,100.18l-15.12,42.86-6.88-42.86h-21.66l-29.57,83.86h21.07l16.01-45.89,6.58,45.89h21.07l29.45-83.86h-20.96ZM807.41,118.35l6.46-18.17h-58.45l-29.57,83.86h58.45l6.46-18.17h-37.49l4.73-13.63h30.97l6.46-18.17h-30.97l5.45-15.72h37.49ZM430.12,76.93h-2.17v3.77h-2.17v-3.77h-2.17v3.77h-2.17v-3.77h-2.17v3.77h-2.17v-3.77h-2.17v3.77h-2.17v-3.77h-2.17v6.15h19.49v-6.15ZM417.34,95.58s2.52-3.27,7.36-1.39c0,0-.35-4.42,5.63-4.17v-2.38h-19.71v2.38s6.2-.64,6.71,5.56ZM364.05,82.88s3.03-.02,3.03-3.57c0,0-.18-2.98-3.03-2.98h-4.55v-6.55h3.68s9.99-.53,9.96,8.33c0,0,21.1.26,21.01,13.49v4.37h.65s6.5-.02,6.5,8.93c0,0-.22,8.53-6.5,8.53h-.65v6.55s12.86-.26,13.86-11.71c0,0-.04-4.35,0-15.68,0-2.82-4.98-2.38-4.98-2.38h-2.82s.88-7.14-6.5-11.71c-12.98-7.23-32.06-25.2-32.06-25.2l3.47,11.51-21.66-5.56,4.12,5.36-10.61,5.95,7.36,5.36-5.85,6.95h25.56ZM450.26,47.17s-4.38,4.56,2.38,4.56h24.04v5.56h-19.49v4.76s-.95,14.39,19.28,3.57v11.31l14.73-8.73v-18.06h2.82s7.74-.14,1.3-6.15l-4.33-4.37s2.61-7.93-6.93-7.94h-11.91s-6.26.25-6.5-4.37l-7.58,3.97s1.83,8.24-7.8,15.87ZM465.86,35.46c4.98,8.07,9.1.2,9.1.2l5.42,4.76c-11.49,9.81-18.85-.6-18.85-.6l4.33-4.37ZM457.19,142.41v41.47h26.86v-43.85c-12.94,5.73-26.86,2.38-26.86,2.38ZM491.42,137.25v46.63h20.58v-62.11c-8.18,11.15-20.58,15.48-20.58,15.48ZM349.11,114.04h4.33v6.35c7.38,1.28,10.83-5.16,10.83-5.16l6.07,3.17c-4.56,10.91-16.25,9.13-16.25,9.13,8.35,11,20.36,1.19,20.36,1.19v12.3c5.5-4.89,12.78-2.18,12.78-2.18v-31.15h4.55c2.41,0,2.38-2.78,2.38-2.78-.01-2.98-2.38-2.78-2.38-2.78h-4.55v-7.74c0-11.28-15.16-10.32-15.16-10.32-2.02,5.86-8.01,5.36-8.01,5.36h-10.61v13.49l-6.28,8.73c-1.91,2.68,1.95,2.38,1.95,2.38ZM359.72,105.31c.06-11.25,10.61-10.32,10.61-10.32,10.59.01,10.61,10.32,10.61,10.32v2.78h-6.93v-2.78c0-4.51-3.68-4.37-3.68-4.37-3.92,0-3.68,4.37-3.68,4.37v2.78h-6.93v-2.78ZM489.04,10.06c-16.77-20.61-33.36-3.17-33.36-3.17-5.25-3.01-11.05,1.98-11.05,1.98-5.84,4.78.22,8.53.22,8.53,5.42-8.95,10.83,6.75,10.83,6.75l9.53-4.96c.21-6.11,10.83-5.75,10.83-5.75h2.17v5.95h-2.17c-5.14-.02-4.98,3.57-4.98,3.57,0,3.99,4.76,3.96,4.76,3.96h8.67c16.46.01,14.08,12.7,14.08,12.7l3.47,3.37c11.3,10.98-.87,11.51-.87,11.51h-2.82v7.74h7.15c25.49-.24,11.48-29.96,11.48-29.96,15.52-34.87-27.94-22.22-27.94-22.22ZM457.19,116.02c12.25,5.35,26.86-7.74,26.86-7.74v-27.78c-24.6,11.77-26.86,35.52-26.86,35.52ZM346.94,183.68h74.3c-38.71-84.34-74.3,0-74.3,0ZM492.07,128.52c13.82-8.51,19.71-17.26,19.71-17.26v-22.03c-7.26,17.79-26.86,28.37-26.86,28.37-28.5,18.9-48.74-8.14-48.74-8.14l-7.15-9.72c-13.23-5.35-11.7,6.94-11.7,6.94,2.07,3.83,7.15,11.11,7.15,11.11,0,0,25.55,33.98,67.58,10.72ZM491.42,103.32c14.22-10.89,16.9-22.82,16.9-22.82,4.64-16.35-8.23-8.53-8.23-8.53l-8.66,4.96v26.39Z"/>
  </g>
</svg>